<?xml version="1.0" encoding="UTF-8"?>
<!DOCTYPE svg  PUBLIC '-//W3C//DTD SVG 1.1//EN'  'http://www.w3.org/Graphics/SVG/1.1/DTD/svg11.dtd'>
<svg version="1.1" xmlns="http://www.w3.org/2000/svg">
<defs>
<font id="SDK_JP_Web-85W" horiz-adv-x="1000">
<font-face font-family="SDK_JP_Web" font-weight="400" ascent="850" bbox="-45 -304 1064 942" cap-height="748" descent="-150" panose-1="0 2 6 0 4 1 1 1 1 1" underline-position="-309" underline-thickness="50" unicode-range="U+0020-00FE" units-per-em="1000" x-height="499"/>
<missing-glyph/>
<glyph glyph-name="space" horiz-adv-x="300" unicode=" "/>
<glyph d="M170 16q0 43 27 70t73 27t73 -27t27 -70t-27 -70t-73 -27t-73 27t-27 70zM323 794q24 0 26 -28q0 5 0 -38.5v-87.5v-383q3 -39 -35 -46q-106 -1 -80 -1q-50 2 -48 47v505q-3 24 21 30z" glyph-name="exclam" horiz-adv-x="501" unicode="!"/>
<glyph d="M36 787h141q13 -1 12 -16l-27 -217q-12 -57 -103 -58l-35 283q2 8 12 8zM231 787h141q13 -1 12 -16l-26 -217q-13 -57 -104 -58l-34 283q1 8 11 8z" glyph-name="quotedbl" horiz-adv-x="408" unicode='"'/>
<glyph d="M321 278h122l41 188h-122zM387 747h7q19 2 23 -15l-30 -181l111 -1l23 101q8 57 -27 81q5 13 20 14l150 1h8q23 -2 21 -21l-33 -175h104q19 0 19 -16v-46q2 -20 -11 -23h-131l-43 -189h119q22 0 20 -23v-46q0 -16 -19 -16h-139l-30 -137q-14 -64 -69.5 -80t-96.5 -14 q-6 3 -4 12l42 219h-119l-29 -138q-20 -95 -168 -93q-6 3 -4 12l43 219h-102q-14 0 -14 12v62q0 5 12 11h123l42 189h-114q-11 0 -17 12v61q0 12 16 12h131l19 100v15q4 39 -26 66q2 11 16 15h157z" glyph-name="numbersign" horiz-adv-x="806" unicode="#"/>
<glyph d="M247 781h119q25 -2 27 -25v-99q27 -2 63 -15q31 2 38 34q9 2 18 -9l24 -170q2 -15 -9 -15h-38q-15 -2 -23 13q-37 87 -141 96h-31q-91 0 -91 -66q0 -61 181 -121q189 -59 189 -179q0 -119 -133 -166q-17 -8 -47 -11v-86q1 -23 -31 -26h-110q-22 2 -26 26v89 q-76 15 -121.5 53.5t-57.5 65.5q-4 8 2 14q38 28 47 35q10 6 19 -5q80 -86 192 -91q117 0 117 63v7q0 57 -207 133q-158 47 -158 156v11q0 124 162 168h5v95q1 24 21 25z" glyph-name="dollar" horiz-adv-x="606" unicode="$"/>
<glyph d="M615 745h194q12 -4 9 -14q-472 -657 -558 -764q-5 -11 -21 -9h-124q-22 0 -26 12q487 652 521 717q5 8 5 18q0 11 -13 31q2 9 13 9zM50 561q0 47 14 83.5t38.5 62t58.5 39t74 13.5q41 0 75 -13.5t58.5 -39t38.5 -62t14 -83.5q0 -46 -14 -82.5t-38.5 -62t-58.5 -39 t-75 -13.5q-40 0 -74 13.5t-58.5 39t-38.5 62t-14 82.5zM309 561q0 32 -5.5 57t-15 42.5t-23.5 27t-30 9.5q-17 0 -30.5 -9.5t-23 -27t-15 -42.5t-5.5 -57t5.5 -57t15 -43t23 -27t30.5 -9q16 0 30 9t23.5 27t15 43t5.5 57zM526 184q0 47 14 83.5t38.5 62t58.5 39t74 13.5 q41 0 75 -13.5t58.5 -39t38.5 -62t14 -83.5q0 -46 -14 -82.5t-38.5 -62t-58.5 -39t-75 -13.5q-40 0 -74 13.5t-58.5 39t-38.5 62t-14 82.5zM785 187q0 32 -5.5 57t-15 42.5t-23 27t-30.5 9.5q-16 0 -30 -9.5t-23.5 -27t-15 -42.5t-5.5 -57t5.5 -57t15 -43t23.5 -27t30 -9 q17 0 30.5 9t23 27t15 43t5.5 57z" glyph-name="percent" horiz-adv-x="938" unicode="%"/>
<glyph d="M310 56q67 0 113 55l-158 250q-61 -43 -86.5 -82t-25.5 -77q0 -63 40 -104.5t117 -41.5zM543 627q-4 -115 -157 -194l145 -222l76 90q14 50 -32 65q0 16 16 19h180q18 -5 18 -23q-41 2 -77 -53l-131 -165q47 -69 100 -69q66 8 114 72q9 -7 5 -23q-46 -159 -178 -159 q-72 0 -143 68q-93 -89 -242 -80.5t-203 133.5q-31 74 -10 143q41 117 204 200l-100 161q-8 7 -9 29q12 126 204 136q214 -3 220 -128zM336 494q85 42 85 120q-7 74 -77 80q-85 -4 -88 -65q0 -8 3 -12z" glyph-name="ampersand" horiz-adv-x="817" unicode="&amp;"/>
<glyph d="M49 787h141q13 -1 12 -16l-26 -217q-13 -57 -104 -58l-34 283q1 8 11 8z" glyph-name="quotesingle" horiz-adv-x="246" unicode="'"/>
<glyph d="M342 815l35 -48q9 -11 -1 -22q-173 -167 -173 -427q0 -245 175 -416q6 -9 1 -20l-40 -45q-9 -10 -21 -4q-278 164 -278 499q0 317 285 487q11 6 17 -4z" glyph-name="parenleft" horiz-adv-x="382" unicode="("/>
<glyph d="M51 -163l-35 48q-9 11 2 23q172 167 172 427q0 245 -174 415q-6 9 -2 20l40 45q9 11 21 4q278 -163 278 -498q0 -317 -285 -488q-10 -6 -17 4z" glyph-name="parenright" horiz-adv-x="385" unicode=")"/>
<glyph d="M191 787h94q12 -1 13 -15v-122l104 31q19 3 24 -10l22 -79q2 -19 -14 -24l-115 -34l93 -100q8 -9 2 -20l-65 -64q-13 -7 -23 7q7 -10 -91 101l-94 -100q-10 -12 -24 -3l-63 61q-9 10 -1 20l95 99l-110 31q-14 5 -13 21l18 81q7 12 20 11l115 -29v122q0 11 13 15z" glyph-name="asterisk" horiz-adv-x="475" unicode="*"/>
<glyph d="M276 589h93q22 1 22 -20v-160h192q15 0 17 -12v-88q0 -16 -16 -16h-193v-193q-1 -24 -17 -26l-102 -1q-20 0 -20 23v197h-186q-14 -1 -18 12v92q3 14 17 12h187v158q0 22 24 22z" glyph-name="plus" horiz-adv-x="644" unicode="+"/>
<glyph d="M253 36q5 -197 -181 -239q-11 0 -12 10q73 37 86 140q-85 -1 -92 90q0 9 1 18q10 77 98 81q91 -2 100 -100z" glyph-name="comma" horiz-adv-x="299" unicode=","/>
<glyph d="M62 307h418q15 0 15 -12v-92q-1 -13 -15 -12h-418q-12 0 -12 13v91q0 11 12 12z" glyph-name="hyphen" horiz-adv-x="539" unicode="-"/>
<glyph d="M52 36q0 43 27 70t73 27t73 -27t27 -70t-27 -70t-73 -27t-73 27t-27 70z" glyph-name="period" horiz-adv-x="315" unicode="."/>
<glyph d="M425 756q15 -2 14 -17l-243 -793q-5 -16 -22 -16h-118q-15 -1 -16 12l253 799q4 12 17 14z" glyph-name="slash" horiz-adv-x="429" unicode="/"/>
<glyph d="M63 343q0 202 82 302.5t228 100.5t228 -100.5t82 -302.5q0 -101 -21 -176.5t-61 -126t-97.5 -75.5t-130.5 -25q-146 0 -228 100.5t-82 302.5zM237 343q0 -160 35 -238t101 -78t101 78t35 238t-35 238t-101 78t-101 -78t-35 -238z" glyph-name="zero" horiz-adv-x="740" unicode="0"/>
<glyph d="M309 751q15 4 21 -9v-655q0 -118 -152 -154q-15 0 -15 12v515q4 127 -155 122q-3 16 13 28z" glyph-name="one" horiz-adv-x="395" unicode="1"/>
<glyph d="M299 747q224 3 282 -156q8 -29 8 -54v-15q2 -146 -163.5 -237t-169.5 -198h221q95 0 116 38q14 -3 15 -19l-35 -150h-46h-461q-20 0 -20 39v7q-4 161 218 304q156 107 162 164q18 172 -107 188q-127 -10 -117 -190q-1 -16 -18 -19h-119q-15 0 -17 18q2 140 78 210 q68 61 173 70z" glyph-name="two" horiz-adv-x="642" unicode="2"/>
<glyph d="M310 756q133 -1 204.5 -65.5t67.5 -145.5q-6 -124 -108 -174q37 -10 66 -33q73 -52 70 -155q-8 -123 -95 -182.5t-213 -54.5q-180 0 -240 132q-11 41 -11 70v62q2 10 11 12h107q9 -1 12 -12v-23q-6 -121 118 -132h4q134 10 135 128q2 129 -135 143h-78q-9 0 -11 11v66 q-1 12 11 12h74q126 2 133 129q-15 108 -129 109q-117 -11 -118 -119v-19q0 -16 -14 -16h-103q-14 -1 -15 15q2 237 257 242z" glyph-name="three" horiz-adv-x="662" unicode="3"/>
<glyph d="M519 748q20 1 23 -12l1 -474h147q11 -1 11 -12v-97q-4 -12 -23 -12h-135v-59q0 -123 -159 -147q-7 1 -7 11v195h-256h-59q-28 3 -26 21q-5 45 12 66l328 504q10 15 27 16h116zM372 589q-10 -18 -133 -218q-30 -49 -67 -109h205l-1 327h-4z" glyph-name="four" horiz-adv-x="729" unicode="4"/>
<glyph d="M169 744h414q7 -1 7 -8v-8q0 -70 -81 -108q-17 -8 -62 -8h-193q-23 -155 -23 -174h4q27 15 116 20q197 0 255 -151q15 -37 15 -105q0 -172 -183 -235q-56 -15 -132 -15q-143 8 -197.5 75t-55.5 129v32q0 21 15 26h97q11 -1 12 -12v-4q0 -150 131 -150h4q102 0 131 104 q4 21 4 35v39q0 89 -69 127q-35 16 -74 16q-64 0 -158 -37q-21 -13 -26 -5l-24 12q-7 6 -3 23l64 369q1 12 12 13z" glyph-name="five" horiz-adv-x="663" unicode="5"/>
<glyph d="M356 -63q-68 0 -123.5 18.5t-95.5 56.5t-61 96t-21 135q-1 209 125.5 346t272.5 174q22 8 27 -10l22 -44q1 -4 1 -7q1 -10 -11 -17q-60 -31 -111 -73t-85.5 -98t-44.5 -99q27 18 63 31t82 13q121 0 188 -66.5t67 -193.5q0 -63 -20.5 -112t-59 -82t-93.5 -50.5t-122 -17.5 zM227 200q4 -87 37.5 -130.5t91.5 -43.5q57 0 90.5 43.5t33.5 129.5t-33.5 128.5t-90.5 42.5q-31 0 -62 -12t-56 -34q-12 -52 -11 -124z" glyph-name="six" horiz-adv-x="688" unicode="6"/>
<glyph d="M590 745q16 -6 16 -20q-197 -267 -254 -640q-11 -73 -47.5 -105t-118.5 -34q-7 1 -18 8q14 408 259 662h-321q-57 0 -80 -35h-4q-12 3 -12 15l27 135q4 13 19 14h534z" glyph-name="seven" horiz-adv-x="586" unicode="7"/>
<glyph d="M33 161q0 33 11 63t31.5 55.5t48.5 44t63 27.5q-35 19 -59 40.5t-38 45.5t-20 50.5t-6 56.5q0 95 71.5 151t203.5 56q66 0 117 -14.5t86 -40.5t53.5 -62.5t18.5 -79.5q0 -33 -9.5 -61.5t-26 -51t-38.5 -38.5t-47 -24q81 -39 116.5 -91t35.5 -126q0 -113 -78.5 -170 t-227.5 -57t-227.5 57t-78.5 169zM477.5 178q-9.5 27 -27.5 48.5t-56.5 42.5t-90.5 31q-60 -34 -82.5 -70t-22.5 -77q0 -64 37.5 -97.5t103.5 -33.5t100 26t41 64.5t-2.5 65.5zM229 561q0 -25 9 -44.5t27.5 -36.5t40.5 -28t65 -23q41 24 61 57.5t20 82.5q-3 41 -33.5 68 t-79.5 27t-79.5 -28.5t-30.5 -74.5z" glyph-name="eight" horiz-adv-x="674" unicode="8"/>
<glyph d="M319 766q66 0 120.5 -18t93.5 -55.5t60 -94t21 -132.5q0 -84 -25.5 -165t-73.5 -149t-117 -118t-175 -87q-21 -8 -28 11l-19 42q-2 4 -2 7q-1 9 11 16q59 31 95 59t64.5 62t48 73t28.5 81q-26 -18 -61.5 -30.5t-80.5 -12.5q-118 0 -184 65t-66 189q0 62 20.5 110t58 80.5 t91.5 49.5t120 17zM445 508q-4 86 -37 128.5t-89 42.5t-89 -42.5t-33 -127.5q0 -84 33 -125.5t89 -41.5q30 0 60.5 11.5t54.5 33.5q12 51 11 121z" glyph-name="nine" horiz-adv-x="637" unicode="9"/>
<glyph d="M67 422q0 38 24 62t65 24q40 0 64 -24t24 -62t-24 -62t-64 -24q-41 0 -65 24t-24 62zM67 59q0 38 24 62t65 24q40 0 64 -24t24 -62t-24 -62t-64 -24q-41 0 -65 24t-24 62z" glyph-name="colon" horiz-adv-x="332" unicode=":"/>
<glyph d="M71 415q0 40 25 65.5t69 25.5q43 0 68 -25.5t25 -65.5t-25 -65t-68 -25q-44 0 -69 25t-25 65zM258 56q5 -183 -169 -223q-11 0 -11 10q68 35 81 130q-81 -1 -87 84q1 10 1 17q9 72 91 75q86 -1 94 -93z" glyph-name="semicolon" horiz-adv-x="359" unicode=";"/>
<glyph d="M549 580q1 2 1 -80q1 -30 -17 -42l-279 -145v1l268 -140q27 -13 27 -44v-89q0 -16 -15 -16l-455 233q-27 12 -28 40v31q-1 27 27 38l461 236q12 3 10 -23z" glyph-name="less" horiz-adv-x="607" unicode="&lt;"/>
<glyph d="M51 498h450q14 0 14 -10v-84q-1 -12 -13 -11h-451q-10 0 -10 12v83q0 9 10 10zM51 280h450q14 0 14 -10v-84q-1 -11 -13 -11h-451q-10 0 -10 12v83q0 9 10 10z" glyph-name="equal" horiz-adv-x="554" unicode="="/>
<glyph d="M52 585q-1 27 11 23l461 -236q27 -11 26 -37v-31q0 -29 -27 -40l-455 -233q-16 0 -16 16v88q0 31 28 45l267 139v-1l-279 145q-18 13 -16 43q0 82 0 79z" glyph-name="greater" horiz-adv-x="603" unicode="&gt;"/>
<glyph d="M195 27q0 43 27.5 70t74.5 27t74.5 -27t27.5 -70t-27.5 -70t-74.5 -27t-74.5 27t-27.5 70zM296 804q228 -11 249 -181v-23q-7 -165 -148 -233q-22 -7 -27 -29v-78q0 -41 -40 -45l-69 -1q-49 -1 -49 44q0 -34 1 111q-4 40 96 103q75 51 72 145.5t-81 104.5q-60 -1 -80 -46 q-20 -61 -14 -122q1 -20 -14 -24h-136q-15 2 -15 20l-1 38q0 148 135 198q52 19 121 18z" glyph-name="question" horiz-adv-x="616" unicode="?"/>
<glyph d="M565 792q361 -20 393 -343q5 -229 -203 -337q-44 -24 -88 -20q-85 20 -85 81v0q-57 -76 -155 -76h-25q-143 9 -139 131q3 141 274 196q44 11 40 35v25q-10 65 -75 65q-68 -10 -79 -85q-1 -21 -16 -20h-81q-15 2 -15 20q17 158 206 165q211 -5 211 -165l-13 -206 q-4 -45 29 -34q68 64 79 155q19 168 -61.5 245t-193.5 80q-195 -3 -284.5 -112t-95.5 -241q-17 -331 347 -369q147 7 258 90q58 61 123 62q15 -2 14 -12q-109 -234 -371 -244q-336 2 -466 229q-43 88 -48 201v5q12 361 331 457q71 21 189 22zM412 233q3 -41 45 -50h20 q85 0 89 173q-154 -33 -154 -123z" glyph-name="at" horiz-adv-x="1020" unicode="@"/>
<glyph d="M284 743h104q28 2 36 -23q258 -748 258 -759q0 -8 -8 -8h-43q-121 0 -178 145q-21 56 -23 62h-260q-2 -5 -57 -175q-7 -13 -27 -22q-35 -14 -82 -10q-8 0 -8 8q32 115 252 759q10 24 36 23zM304 568l-103 -312h201v4l-94 308h-4z" glyph-name="A" horiz-adv-x="666" unicode="A"/>
<glyph d="M259 652v-230h75q55 0 87.5 29.5t32.5 85.5t-32.5 85.5t-87.5 29.5h-75zM36 745h349q193 0 238 -128q9 -38 8 -53q0 -132 -121 -174l-8 -3q41 -7 76 -25q97 -62 97 -169v-25q0 -146 -165 -194q-51 -12 -112 -12h-278q-32 0 -32 33v630q0 55 -68 100v4q4 13 16 16z M261 329v-260q3 -13 12 -13h68q157 0 157 132q0 141 -161 141h-76z" glyph-name="B" horiz-adv-x="697" unicode="B"/>
<glyph d="M639 754q10 3 14 -8l37 -222q3 -21 -17 -21h-2l-39 1q-14 1 -17 14q-74 127 -199 135q-129 0 -183 -133q-29 -82 -29 -171q0 -261 166 -303q17 -4 33 -4h38q100 0 212 101q12 9 21 0l33 -27q9 -6 7 -17q-43 -75 -133 -122q-81 -35 -174 -35q-322 3 -382 310q-8 42 -8 118 q0 245 224 349q68 29 166 29q90 0 200 -45q27 12 32 51z" glyph-name="C" horiz-adv-x="723" unicode="C"/>
<glyph d="M32 745h332q251 0 341 -199q38 -73 38 -196q0 -268 -217 -373q-69 -30 -166 -30h-241q-33 0 -33 35v640q0 56 -70 101v4q2 14 16 18zM260 642v-554q-2 -19 17 -20q287 -10 287 286q0 225 -150 276q-41 12 -108 12h-46z" glyph-name="D" horiz-adv-x="777" unicode="D"/>
<glyph d="M54 748h513q13 0 21 -8l23 -106v-13q-4 -12 -15 -13q-28 40 -82 38h-250v-225h283q12 -4 12 -17v-67q-1 -15 -16 -17q-252 -1 -279 -1v-4v-233h239q85 5 85 39h12q10 -4 11 -17l-15 -138q-5 -13 -18 -12h-471q-17 9 -16 35v636q0 62 -70 98q9 25 33 25z" glyph-name="E" horiz-adv-x="639" unicode="E"/>
<glyph d="M56 749h494q18 -1 23 -15q14 -87 19 -112q1 -19 -16 -23q-22 48 -88 50h-228v-234h274q8 -1 8 -8v-79q0 -9 -8 -9h-274v-216q0 -128 -159 -154h-4q-9 0 -9 8v667q-2 70 -69 104q0 21 37 21z" glyph-name="F" horiz-adv-x="590" unicode="F"/>
<glyph d="M650 762q18 3 22 -15l29 -229q2 -13 -14 -13l-59 1q-17 -2 -22 16q-50 133 -183 135q-207 -16 -217 -292q7 -231 120 -301q48 -25 101 -25q35 0 97 16v164q0 56 -72 106q7 21 30 21h252q23 0 30 -17v-4q-72 -48 -72 -122v-169q0 -60 -140 -83q-46 -9 -116 -9h-47 q-204 7 -287.5 124t-81.5 295q-1 275 247 371q52 21 150 21t199 -46q28 14 34 55z" glyph-name="G" horiz-adv-x="771" unicode="G"/>
<glyph d="M34 746h213q17 -7 17 -30v-282h276v299q0 6 12 13h147q16 -7 16 -30v-550q-5 -134 -61.5 -175t-105.5 -41l-8 12v368h-276l1 -211q-1 -113 -93 -149q-49 -20 -75 -20l-9 12v642q0 78 -71 121v4q1 12 17 17zM98 -50q-10 0 -10 9t10 9q9 0 9 -9t-9 -9zM98 -50q-10 0 -10 9 t10 9q9 0 9 -9t-9 -9zM549 -50q-9 0 -9 9t9 9q10 0 10 -9t-10 -9z" glyph-name="H" horiz-adv-x="783" unicode="H"/>
<glyph d="M49 748h286q17 -6 21 -21v-4q-71 -43 -71 -103v-541q0 -60 71 -103v-4q-3 -17 -21 -20h-286q-20 3 -21 20v4q72 43 72 103v541q0 60 -72 103v4q4 15 21 21z" glyph-name="I" horiz-adv-x="386" unicode="I"/>
<glyph d="M54 750h207q8 0 14 -15v-744q0 -184 -165 -264q-66 -25 -141 -25q-11 2 -14 14q146 71 146 269v603q0 88 -79 138v4q7 20 32 20z" glyph-name="J" horiz-adv-x="360" unicode="J"/>
<glyph d="M43 747h200q6 0 12 -13v-369h4l200 286l2 14q0 39 -51 61v4q7 17 29 17h228q29 0 29 -25q-76 -16 -113 -74l-144 -208q198 -372 229 -396q37 -38 93 -70v-5q-2 -9 -12 -12l-81 -2q-121 -6 -193 90l-141 257h-1l-78 -98v-92q0 -129 -163 -155l-4 8v580q0 159 -73 177v4 q6 21 28 21zM92 -43q-4 0 -4 4v8q8 -4 8 -8t-4 -4z" glyph-name="K" horiz-adv-x="730" unicode="K"/>
<glyph d="M44 737h192q22 0 22 -22v-642q0 -22 21 -22h327q13 -1 12 -14q-7 -29 -42 -56t-109 -27h-339q-43 0 -43 40v606q0 74 -69 116v5q6 16 28 16z" glyph-name="L" horiz-adv-x="593" unicode="L"/>
<glyph d="M43 746h220q28 3 40 -19q192 -455 192 -472h4q162 440 187 483q11 9 25 8h157q5 0 13 -12v-780q-85 -1 -129.5 28t-44.5 81v438h-5l-189 -522l-27 -2q-61 0 -84 38q-91 245 -197 514h-4v-466q0 -74 -71 -101q-29 -10 -36 -8l-5 8v633q0 93 -75 130q5 21 29 21zM93 -46 q-4 0 -4 4v8q8 -4 8 -8q0 -5 -4 -4z" glyph-name="M" horiz-adv-x="966" unicode="M"/>
<glyph d="M45 746h199q35 1 51 -25l324 -457v328q0 96 -75 133q6 21 29 21h224q12 -4 17 -16v-9q-76 -18 -79 -116v-637q-1 -12 -17 -17h-64q-43 0 -72 44l-375 556v-467q0 -99 -75 -129q-31 -9 -38 -9l-4 9v637q0 96 -75 133q7 21 30 21zM94 -54q-4 0 -4 8q0 7 4 7q6 0 6 -7 q0 -8 -6 -8z" glyph-name="N" horiz-adv-x="826" unicode="N"/>
<glyph d="M15 353q0 94 28.5 169t78.5 127t119.5 79.5t151.5 27.5t151.5 -27.5t119.5 -79.5t78.5 -127t28.5 -169t-28.5 -169t-78.5 -127t-119.5 -79.5t-151.5 -27.5t-151.5 27.5t-119.5 79.5t-78.5 127t-28.5 169zM585 353q0 72 -14 128.5t-39 96.5t-60.5 61t-78.5 21t-78.5 -21 t-60.5 -61t-39 -96.5t-14 -128.5t14 -128.5t39 -96.5t60.5 -61t78.5 -21t78.5 21t60.5 61t39 96.5t14 128.5z" glyph-name="O" horiz-adv-x="806" unicode="O"/>
<glyph d="M46 744h278q332 0 332 -245q0 -187 -195 -236q-80 -15 -199 -9v-148q0 -118 -160 -166q-16 1 -14 16v651q0 75 -71 112v8q7 17 29 17zM262 649v-299h79q145 0 145 149q0 150 -149 150h-75z" glyph-name="P" horiz-adv-x="679" unicode="P"/>
<glyph d="M401 761q243 -2 341 -245q26 -67 26 -162q0 -247 -203 -355q51 -112 124 -171q35 -22 56 -30q-2 -10 -19 -15h-66q-187 0 -273 178h-16q-355 65 -356 409q25 383 386 391zM205 366q18 -307 194 -310q165 0 178 313q-19 283 -180 297q-171 -15 -192 -300z" glyph-name="Q" horiz-adv-x="803" unicode="Q"/>
<glyph d="M35 745h323q251 -8 273 -209q16 -176 -131 -223v-4q39 0 109 -182q66 -135 154 -157v-8q-1 -7 -13 -12h-83q-177 0 -237 165q-60 173 -113 173h-46h-12l-1 -4v-185q0 -127 -162 -152q-8 0 -8 8v646q0 88 -70 114v14q3 12 17 16zM258 649v-256h72q127 0 127 136 q-14 120 -103 120h-96z" glyph-name="R" horiz-adv-x="723" unicode="R"/>
<glyph d="M501 774h4q8 -1 9 -11l36 -235q0 -13 -11 -13h-47q-14 -1 -19 11q-70 116 -190 125q-94 0 -94 -86q0 -73 187 -151q199 -81 208 -242q7 -218 -285 -223q-182 -2 -279 158q-4 10 0 17l36 39q13 4 21 -7q93 -109 218 -113q132 0 132 91q-5 53 -190 152q-154 95 -193 190 q-17 41 -9 106q45 167 266 164q86 -4 150 -38q35 14 50 66z" glyph-name="S" horiz-adv-x="609" unicode="S"/>
<glyph d="M668 744q7 -1 10 -7l25 -108q-2 -14 -14 -14q-14 31 -60 34h-165v-565q4 -74 -62 -104.5t-120 -34.5l-9 12v692h-167q-43 -2 -56 -34h-5q-11 3 -13 17l17 106q2 6 8 6h611zM282 -55q-9 0 -9 13t9 13q8 0 8 -13t-8 -13z" glyph-name="T" horiz-adv-x="688" unicode="T"/>
<glyph d="M40 746h292q21 -1 21 -25q-73 1 -81 -126v-326q0 -206 166 -206h4q134 0 161 143v415q0 77 -72 107q2 15 17 18h240q20 -5 18 -25q-76 0 -81 -126v-393q0 -193 -246 -241q-33 -7 -67 -6q-231 0 -300 172q-17 36 -17 104v390q-6 90 -72 105q0 18 17 20z" glyph-name="U" horiz-adv-x="814" unicode="U"/>
<glyph d="M27 744h263q23 0 32 -24q-44 -4 -52 -56q153 -490 163 -490l164 486q0 36 -52 60q8 24 32 24h187q28 0 28 -29q-71 -17 -91 -55l-237 -693q-23 -11 -51 -12q-79 -2 -108 91q-201 550 -231 618q-43 51 -79 51v9q10 20 32 20z" glyph-name="V" horiz-adv-x="775" unicode="V"/>
<glyph d="M22 725h279q24 1 29 -19h-1q-71 -28 -60 -73l110 -401h4l152 450q3 9 13 10h71q11 0 15 -11l137 -436h5l71 379v27q-4 37 -46 46q4 26 35 28h196q26 -2 32 -24v-4q-56 -16 -78 -66l-137 -669q-9 -18 -24 -17l-98 -1q-24 0 -32 26l-142 431h-3l-141 -419q-9 -38 -35 -37 h-70q-22 -1 -28 28l-201 665q-27 50 -87 54v9q7 24 34 24z" glyph-name="W" horiz-adv-x="1045" unicode="W"/>
<glyph d="M37 743h205q13 0 22 -15l139 -241l102 176q14 44 -45 59v4q4 13 16 17h232q16 -9 16 -25q-53 -6 -85 -59l-179 -281l216 -356q24 -31 57 -41l12 -2v-8q-7 -16 -29 -16h-162q-45 -3 -61 20l-155 260l-179 -245q-21 -34 -90 -35q-47 2 -43 15l2 6l249 368l-188 318 q-35 56 -80 60q5 21 28 21z" glyph-name="X" horiz-adv-x="730" unicode="X"/>
<glyph d="M7 744h291q11 -3 12 -12v-4q-53 -29 -48 -59q0 -19 131 -258l136 259q14 40 -48 58q2 12 16 16h215q16 -5 16 -16v-4q-61 -16 -90 -60l-193 -375v-160q0 -141 -127 -174q-15 -4 -32 -4h-4q-8 0 -8 8v329l-207 389q-31 34 -76 43v8q2 11 16 16z" glyph-name="Y" horiz-adv-x="671" unicode="Y"/>
<glyph d="M616 744q13 -2 16 -17v-13l-340 -640v-3h267q55 0 79 39q15 -4 16 -17q-20 -95 -31 -126q-6 -8 -18 -8h-577q-18 7 -10 27l357 660h-4h-203q-79 -2 -108 -42h-4q-15 2 -13 18q13 80 21 114q4 8 12 8h540z" glyph-name="Z" horiz-adv-x="669" unicode="Z"/>
<glyph d="M136 812h253q22 1 25 -18v-55q-1 -22 -24 -24h-117v-785h114q26 3 27 -17v-57q1 -20 -27 -18h-250q-25 -1 -27 22v934q2 20 26 18z" glyph-name="bracketleft" horiz-adv-x="443" unicode="["/>
<glyph d="M10 711h109q19 0 23 -17l201 -746q-4 -11 -15 -12l-107 1q-28 3 -35 39l-189 714q-3 19 13 21z" glyph-name="backslash" horiz-adv-x="385" unicode="\"/>
<glyph d="M315 -162h-253q-22 -1 -25 18v55q1 22 23 24h118v784h-115q-25 -3 -26 17v57q-1 21 26 19h251q25 1 27 -23v-934q-2 -19 -26 -17z" glyph-name="bracketright" horiz-adv-x="448" unicode="]"/>
<glyph d="M305 790q17 1 27 -19l171 -260q6 -14 -6 -17l-92 1q-27 1 -37 23q-73 116 -75 121v0l-80 -123q-13 -23 -35 -21q-35 -1 -77 -1h-9q-8 0 -10 12l174 265q8 16 24 19h25z" glyph-name="asciicircum" horiz-adv-x="585" unicode="^"/>
<glyph d="M59 1h477q17 0 17 -11v-87q-1 -12 -16 -11h-478q-13 0 -13 12v86q0 10 13 11z" glyph-name="underscore" horiz-adv-x="594" unicode="_"/>
<glyph d="M101 767h149q25 0 32 -22l74 -262q3 -7 -7 -9q-90 3 -128 61l-100 187q-11 25 -36 26v4q2 11 16 15z" glyph-name="grave" horiz-adv-x="443" unicode="`"/>
<glyph d="M255 40q38 0 63 21.5t25 57.5v110q-18 -3 -39 -9t-40 -14q-38 -14 -56.5 -40t-18.5 -58q0 -33 17.5 -50.5t48.5 -17.5zM285 521q163 0 208 -124q10 -26 12 -65v-172q0 -163 58 -182q10 0 10 -7v-4q0 -6 -10 -12h-85q-75 0 -101 78v3h-4q-46 -85 -150 -85q-190 1 -190 152 q1 159 309 205v39q-1 86 -69 93h-19q-73 -13 -77 -96q0 -17 -12 -16h-97q-8 -1 -11 11v20q0 111 139 151q39 11 89 11z" glyph-name="a" horiz-adv-x="568" unicode="a"/>
<glyph d="M228 774q11 -2 11 -15v-285q53 45 120 45h23q149 0 207 -172q13 -60 13 -117q0 -198 -155 -262q-57 -16 -107 -16h-236q-21 0 -27 16v628q0 81 -65 117v7q1 6 9 10zM239 388v-338q1 -11 12 -12h61q120 0 120 165v66q0 102 -50 146q-16 13 -51 20q-57 0 -92 -47z" glyph-name="b" horiz-adv-x="621" unicode="b"/>
<glyph d="M317 509q207 0 242 -166q4 -28 4 -46q1 -18 -11 -20h-102q-8 4 -10 14q-15 128 -123 130q-120 -13 -122 -203q0 -143 117 -174.5t201 51.5q7 2 13 -1q14 -10 27 -28q7 -7 3 -16q-86 -111 -243 -111q-163 3 -227.5 93.5t-57.5 202.5q25 270 289 274z" glyph-name="c" horiz-adv-x="581" unicode="c"/>
<glyph d="M545 775h9q10 -2 12 -11v-784q0 -31 -32 -31h-284q-140 0 -201 167q-11 54 -11 89v51q0 183 143 248q44 15 89 15q82 0 132 -46v128q0 71 -66 113v3q0 19 20 21zM204 224q0 -189 113 -189h77q8 0 8 7v346q-30 42 -89 42h-12q-97 0 -97 -206z" glyph-name="d" horiz-adv-x="640" unicode="d"/>
<glyph d="M287 435q-35 0 -62 -36.5t-27 -123.5h199q3 76 -29 118.5t-81 41.5zM548 329q19 -59 12 -125q1 -22 -18 -22l-341 -2q-7 2 -5 -8q1 -108 109 -130t203 46q3 3 7 1q12 -9 27 -27q6 -6 2 -11q-104 -117 -255 -109q-187 7 -254 185q-9 41 -9 74v39q32 267 262 270 q195 0 260 -181z" glyph-name="e" horiz-adv-x="581" unicode="e"/>
<glyph d="M529 624v-8q-1 -11 -12 -11h-97q-8 0 -8 7v31q-5 66 -60 63q-69 -18 -63 -165q-2 -8 7 -7h185q8 -1 8 -7q-5 -57 -59 -72l-141 -1v-374q0 -112 -152 -141q-9 3 -7 12v503h-96q-10 0 -10 12v61q2 8 12 11h94q23 156 99.5 202.5t176 31.5t123.5 -148z" glyph-name="f" horiz-adv-x="517" unicode="f"/>
<glyph d="M370 328q0 55 -20.5 86t-57.5 31t-57.5 -31t-20.5 -86t20.5 -86t57.5 -31t57.5 31t20.5 86zM452 -140q0 43 -40.5 61.5t-102.5 18.5h-33t-36 0.5t-34.5 1t-28.5 1.5q-14 -11 -21.5 -32.5t-7.5 -50.5q0 -27 13.5 -43.5t35 -25.5t49 -12t55.5 -3q30 0 57.5 4t48 14t33 26 t12.5 40zM542 586q15 0 18 -18q2 -14 1 -29q-6 -72 -46 -115q22 -43 22 -93v-9q0 -129 -138 -174q-25 -12 -214 -14q-9 -18 0 -36q10 -23 70 -23h74q274 0 274 -193q0 -136 -193 -175q-60 -8 -116 -8h-4q-256 0 -256 151q0 67 81 113q-61 28 -61 104q0 77 94 121l-1 -1 q-86 36 -88 126q-1 2 -1 25q0 120 124 167q44 19 116 19q71 0 139 -19q58 -12 105 81z" glyph-name="g" horiz-adv-x="602" unicode="g"/>
<glyph d="M222 771q15 -3 14 -16v-288q53 46 119 46h31q140 -3 181 -122q7 -38 7 -69v-282q4 -71 -73 -87h-77h-3q-8 0 -8 8v372q-6 92 -84 92q-76 1 -93 -57v-382q0 -16 -3.5 -25t-19.5 -8l-127 -1q-12 3 -11 16v646q1 56 -66 96q-1 11 13 17q141 33 200 44z" glyph-name="h" horiz-adv-x="619" unicode="h"/>
<glyph d="M87 684q0 -34 21 -60q28 -29 69 -29q39 0 66 29q24 26 25 60q-1 35 -25 61q-27 30 -66 31q-36 -1 -62 -25q-28 -27 -28 -67zM261 516q8 -3 8 -9v-461q3 -94 -137 -94q-34 1 -34 12v360q0 93 -72 127q-2 19 21 22q184 40 214 43z" glyph-name="i" horiz-adv-x="334" unicode="i"/>
<glyph d="M251 523q12 0 11 -14v-528q0 -203 -157 -264q-52 -16 -123 -20q-15 1 -9 15q76 45 96 77q36 44 36 248v238q3 153 -85 170q-1 26 22 31zM80 694q0 -34 21 -60q28 -29 69 -29q39 0 66 29q24 26 25 60q-1 35 -25 61q-27 30 -66 31q-36 -1 -62 -25q-28 -27 -28 -67z" glyph-name="j" horiz-adv-x="336" unicode="j"/>
<glyph d="M227 770q8 -2 7 -11v-502l137 151q15 48 -48 69v4q3 12 15 15h247q12 -2 15 -15v-4q-29 -7 -59 -34l-143 -150v-5q152 -256 184 -281q26 -23 62 -35v-8q0 -5 -11 -11h-81q-135 0 -194 124q-52 88 -64 111q-5 0 -60 -62v-19q0 -129 -147 -150q-11 -2 -11 11v652 q0 55 -63 89q-1 18 20 23z" glyph-name="k" horiz-adv-x="634" unicode="k"/>
<glyph d="M229 754q11 0 12 -12v-238v-400q2 -54 24 -69t54 -12q28 3 44 4q13 -1 13.5 -17.5t-13.5 -26.5q-62 -59 -122 -59h-19q-144 0 -144 176v504q0 52 -65 93v3q-1 14 15 18q175 34 201 36z" glyph-name="l" horiz-adv-x="363" unicode="l"/>
<glyph d="M385 509h7q92 -1 132 -71q58 70 159 69h8q133 0 178 -105q8 -30 7 -50l-1 -323q-5 -72 -106 -82q-24 -1 -46 0q-8 2 -7 12l1 366q1 90 -76 94q-52 -4 -82 -59l-1 -362q3 -47 -36 -50h-109q-8 1 -7 13l1 361q1 94 -73 96q-56 -2 -86 -44l-1 -370q4 -55 -41 -55h-111 q-10 2 -12 14l2 392q0 53 -66 90q-1 17 22 21q113 25 185 38q13 0 11 -15v-41q52 61 148 61z" glyph-name="m" horiz-adv-x="930" unicode="m"/>
<glyph d="M384 514q177 -10 202 -148q4 -40 4 -62l1 -253q4 -77 -56.5 -93.5t-99.5 -10.5q-8 0 -8 7v354q0 112 -85 112q-57 0 -93 -46v-362q3 -64 -45 -66q-93 1 -107 1q-9 1 -11 11v393q0 57 -67 97v4q1 12 18 16q150 33 192 38q10 0 12 -10v-37q58 55 143 55z" glyph-name="n" horiz-adv-x="638" unicode="n"/>
<glyph d="M27 229q0 64 19.5 117t57 91t91.5 59.5t123 21.5t123 -21.5t91.5 -59.5t57 -91t19.5 -117t-19.5 -117t-57 -91t-91.5 -59.5t-123 -21.5t-123 21.5t-91.5 59.5t-57 91t-19.5 117zM197 229q0 -95 32 -148.5t89 -53.5t89 53.5t32 148.5t-32 148.5t-89 53.5t-89 -53.5 t-32 -148.5z" glyph-name="o" horiz-adv-x="621" unicode="o"/>
<glyph d="M374 519h20q161 0 213 -191q9 -49 9 -82v-19q0 -193 -137 -264q-56 -16 -85 -16h-23q-76 0 -121 47v-144q0 -106 -108 -144q-16 -7 -44 -7h-3q-8 0 -8 7v641q0 71 -66 106v7q5 11 18 14q168 36 195 41q9 -4 8 -11v-41q59 56 132 56zM250 387v-308q38 -46 93 -46 q86 0 101 156v66q0 135 -70 170l-23 4h-23q-44 0 -78 -42z" glyph-name="p" horiz-adv-x="637" unicode="p"/>
<glyph d="M623 477q-66 -45 -66 -105v-523q0 -105 -103 -143q-34 -10 -51 -10q-8 3 -7 10v281q-53 -42 -120 -42h-23q-157 0 -211 185q-8 50 -8 92v19q0 214 185 262q38 8 76 8h9q58 0 99 -15v30q3 10 16 8q129 -29 190 -42q15 -3 14 -12v-3zM199 226q0 -196 105 -196q58 0 92 42 v339q-44 12 -92 15q-105 0 -105 -200z" glyph-name="q" horiz-adv-x="642" unicode="q"/>
<glyph d="M379 505q120 2 131 -164v-15q0 -11 -11 -13h-93q-8 1 -8 13q-7 55 -34 64l-12 1q-43 0 -100 -85q-7 -13 -7 -23v-162q0 -139 -114 -172q-7 -3 -37 -4q-7 2 -8 10v380q0 66 -62 104q1 18 17 21q160 38 186 41q9 0 7 -11v-119h3q59 135 142 134z" glyph-name="r" horiz-adv-x="518" unicode="r"/>
<glyph d="M433 542q20 4 22 -26q12 -98 16 -164q-1 -15 -12 -16h-39q-52 97 -144 98q-82 2 -82 -48q1 -58 182 -124q111 -41 115 -146q0 -165 -231 -165q-162 6 -240 114q-4 7 1 14l29 30q8 6 16 -3q76 -60 131 -69q54 -10 98 -4q46 8 45.5 48.5t-200.5 131.5q-117 73 -102 166 q17 125 179 138q79 5 150 -27q57 -14 66 52z" glyph-name="s" horiz-adv-x="523" unicode="s"/>
<glyph d="M273 675v-172h161q8 -1 8 -8q-6 -32 -27.5 -51t-55.5 -20l-86 -1v-310q0 -79 68 -79q46 2 78 19q9 5 14 -2q9 -15 12 -23q-7 -32 -52 -56t-116 -24q-135 0 -158 80q-8 24 -7 70v326h-64q-15 0 -15 15v53q0 9 11 11h68l1 61q3 38 -29 39q-1 25 20 32l155 53q13 0 14 -13z " glyph-name="t" horiz-adv-x="458" unicode="t"/>
<glyph d="M236 523q13 0 11 -16v-379q0 -69 62 -70h24q61 0 89 70v240q0 53 -66 93v4q0 15 23 18q136 28 198 40q10 2 8 -12v-544q2 -16 -13 -14q-103 -5 -150 78h-4q-52 -74 -132 -74h-43q-159 19 -159 148v243q0 73 -66 113v4q0 14 19 17q139 30 199 41z" glyph-name="u" horiz-adv-x="651" unicode="u"/>
<glyph d="M29 499h225q21 0 29 -23q-64 1 -43 -69l102 -275v-1l95 289q6 37 -44 60v4q6 15 25 15h168q25 0 25 -27q-57 5 -80 -56l-160 -458q-4 -8 -13 -7h-85q-7 0 -11 5l-186 455q-33 63 -77 65v4q8 23 30 19z" glyph-name="v" horiz-adv-x="603" unicode="v"/>
<glyph d="M25 501h259q27 0 27 -24q-52 -9 -55 -55l3 -28l58 -218h5h-5l144 298h46q17 2 26 -17l112 -268h3l72 228v8q3 35 -45 56v4q6 16 26 16h174q27 0 27 -24q-56 -12 -78 -56l-158 -447q-3 -15 -23 -16h-46q-20 0 -24 18l-113 284h-4l-139 -294q-11 -8 -21 -8h-34 q-26 -2 -33 17l-141 423q-34 75 -86 76l-3 7v4q6 16 26 16z" glyph-name="w" horiz-adv-x="893" unicode="w"/>
<glyph d="M41 501h169q11 -2 15 -11l94 -132l56 85q7 35 -25 40v4q2 9 14 14h202q12 -1 15 -14v-4q-58 -1 -96 -38l-114 -170q133 -220 166 -253q34 -35 70 -46v-4q-1 -13 -22 -18q-170 -14 -231 53l-89 147l-101 -149q-26 -43 -87.5 -46t-61.5 13l191 273l-135 203q-24 30 -56 35 q6 18 26 18z" glyph-name="x" horiz-adv-x="592" unicode="x"/>
<glyph d="M27 508h248q19 0 25 -16v-3q-45 -22 -44 -55v-8q0 -11 94 -229h4q95 191 105 237q-5 45 -44 47v11q1 12 15 16h196q11 -5 14 -16v-7q-51 -3 -83 -57l-232 -577q-40 -109 -130 -135t-155 -14q-16 4 -19 21q69 10 112 51t123 233q-175 437 -199 450q-25 28 -56 32v3 q3 17 26 16z" glyph-name="y" horiz-adv-x="617" unicode="y"/>
<glyph d="M74 499h427q28 0 28 -28q0 -15 -269 -427h259q14 2 12 -13q0 -32 -64 -64q-41 -15 -113 -15h-256q-78 -4 -72 42l272 421h-160q-49 0 -80 -36q-15 4 -16 20q22 78 32 100z" glyph-name="z" horiz-adv-x="550" unicode="z"/>
<glyph d="M55 306l1 65q1 9 10 11q65 0 85.5 21t20.5 53q0 19 -2.5 41.5t-6 46t-6 46.5t-2.5 42q0 91 42.5 142.5t129.5 51.5l125 1q-4 -64 -52 -80q-10 -2 -29.5 -6.5t-30 -13t-13.5 -22.5t-1 -33q5 -47 11.5 -95.5t3.5 -91.5q-5 -60 -31.5 -94t-75.5 -55q49 -21 75.5 -55 t31.5 -94q3 -43 -3.5 -91.5t-11.5 -95.5q-2 -20 1 -33.5t13.5 -22t30 -13t29.5 -6.5q54 -19 52 -79h-125q-87 0 -129.5 51.5t-42.5 142.5q0 19 2.5 42t6 46.5t6 46t2.5 41.5q0 32 -20.5 53t-85.5 21q-12 4 -11 16z" glyph-name="braceleft" horiz-adv-x="485" unicode="{"/>
<glyph d="M234 813q25 -1 28 -38v-899q0 -45 -37 -47l-103 1q-34 2 -32 44v900q-2 31 24 39h120z" glyph-name="bar" horiz-adv-x="340" unicode="|"/>
<glyph d="M434 367v-65q-2 -9 -11 -11q-65 0 -85.5 -21t-20.5 -53q0 -19 2.5 -41.5t6 -46t6 -46.5t2.5 -42q0 -91 -42.5 -142.5t-129.5 -51.5l-125 -1q4 64 52 80q10 2 29.5 6.5t30 13t13.5 22.5t1 33q-5 47 -11.5 95.5t-3.5 91.5q5 60 31.5 94t75.5 55q-49 21 -75.5 55t-31.5 94 q-3 43 3.5 91.5t11.5 95.5q2 20 -1 33.5t-13.5 22t-30 13t-29.5 6.5q-54 19 -52 79h125q87 0 129.5 -51.5t42.5 -142.5q0 -19 -2.5 -42t-6 -46.5t-6 -46t-2.5 -41.5q0 -32 20.5 -53t85.5 -21q12 -4 11 -16z" glyph-name="braceright" horiz-adv-x="487" unicode="}"/>
<glyph d="M256 508q27 0 59.5 -10.5t68.5 -25t72.5 -29t70.5 -23.5q19 -5 34 -4t27 8.5t43.5 38t82.5 11.5q-25 -81 -44 -114.5t-43 -54.5t-55 -30.5t-70 -9.5q-27 0 -59.5 10.5t-68.5 25t-72.5 29t-70.5 23.5q-38 10 -61 -3.5t-40 -32t-42 -23t-45 6.5q26 79 45 112.5t43 54.5 t55 30.5t70 9.5z" glyph-name="asciitilde" horiz-adv-x="758" unicode="~"/>
<glyph glyph-name="uni00A0" horiz-adv-x="400" unicode=" "/>
<glyph d="M124 -201q-20 0 -22 23q0 -4 0 32.5v72.5v320q-2 33 30 38q88 1 66 1q42 -1 40 -39v-421q3 -20 -17 -25zM251 450q0 -35 -22.5 -56.5t-60.5 -21.5q-37 0 -59.5 21.5t-22.5 56.5q0 34 22.5 56t59.5 22q38 0 60.5 -22t22.5 -56z" glyph-name="exclamdown" horiz-adv-x="333" unicode="¡"/>
<glyph d="M491 -14l-33 -133h-68l36 145q-141 58 -149 253q16 253 224 266q29 0 54 -5l31 125h70l-37 -145q103 -53 104 -166h-148q-5 89 -76 91q-60 0 -67 -151v-8q0 -5 1 -17q8 -157 68 -156q70 2 76 98h146q-11 -195 -222 -198q-6 0 -10 1z" glyph-name="cent" unicode="¢"/>
<glyph d="M760 96l57 -109q-64 -59 -163 -59q-59 -1 -125 27q-72 30 -122 30q-76 3 -152 -56l-72 121q129 65 139 164q5 35 -3 83h-136v108h116q-14 37 -28 121q-19 232 235 243q230 4 275 -203l-135 -29q-19 119 -120 118q-111 2 -98 -140q7 -91 20 -110h178v-108h-165 q5 -43 -3 -81q-11 -96 -110 -145v-1q58 22 119 21q35 0 97 -22q130 -50 196 27z" glyph-name="sterling" unicode="£"/>
<glyph d="M381 342q1 55 39 96q32 33 79 35q51 -3 85 -43q32 -39 35 -89q1 -50 -31 -88q-17 -19 -40 -31q-24 -11 -49 -11q-53 2 -87 43q-31 39 -31 88zM251 341q0 -32 8 -63q10 -35 26 -68l-55 -55l78 -80l65 60q59 -32 126 -33q66 1 126 33l64 -63l80 80q-29 28 -57 57 q17 36 28 76q7 28 8 57q-2 69 -35 131l57 58l-76 79l-67 -62q-61 31 -128 33q-69 -2 -129 -33l-60 63l-81 -85l59 -58q-37 -59 -37 -127z" glyph-name="currency" unicode="¤"/>
<glyph d="M838 761q13 1 9 -9l-256 -369h232q12 1 9 -9l-22 -56q-13 -32 -48 -31h-194v-317q3 -28 -19 -26h-99q-21 -2 -20 19v324h-247q-7 0 -9 7v79q2 10 9 10h232l-262 369q-4 9 7 9h111q31 3 45 -22l187 -266l180 266q13 23 33 21zM800 152q-12 -32 -52 -30h-548q-13 0 -13 12 v68q1 10 11 10h613q11 0 10 -10z" glyph-name="yen" unicode="¥"/>
<glyph d="M168 728v-386h-76v386h76zM168 176v-386h-76v386h76z" glyph-name="brokenbar" horiz-adv-x="260" unicode="¦"/>
<glyph d="M232 267q0 -26 10 -50q12 -28 32 -50q26 -29 59 -51q31 -20 64 -36q5 -3 11 -6q46 -20 90 -44q23 -13 44 -29q17 -13 29 -32q6 -11 7 -24q-1 -30 -24 -49q-32 -21 -70 -21q-57 1 -108 26q-51 27 -78 78l-71 -29q25 -77 92 -125q81 -56 179 -59q40 1 80 10q45 12 82 38 q32 24 52 59q17 34 18 71q-1 34 -18 62q-27 40 -65 68q54 29 92 78q31 40 33 91q-1 64 -42 113q-27 30 -61 51q-45 27 -92 47q-42 17 -83 39q-20 10 -38 23q-17 12 -27 28q-8 14 -7 30q1 24 21 39q27 19 61 19q34 -1 62 -23q25 -22 35 -54l129 40q-15 35 -37 65 q-23 28 -53 47q-33 19 -71 26q-32 6 -65 7q-43 -1 -84 -10q-45 -12 -83 -39q-65 -50 -67 -131q0 -38 21 -68q27 -35 65 -58q-55 -29 -93 -76q-31 -41 -31 -91zM366 304q0 27 16 49q18 25 45 42q36 -19 74 -35q5 -3 10 -5q31 -13 60 -29q18 -10 34 -22q15 -13 25 -29 q9 -16 10 -35q-1 -12 -6 -22q-8 -16 -20 -29q-31 -32 -69 -51l-76 42q-45 21 -78 58q-24 29 -25 66z" glyph-name="section" unicode="§"/>
<glyph d="M78 606q-25 0 -43 17.5t-18 42.5t18 43t43 18t42.5 -18t17.5 -43t-17.5 -42.5t-42.5 -17.5zM260 606q-24 0 -42 17.5t-18 42.5t18 43t42 18q25 0 43 -18t18 -43t-18 -42.5t-43 -17.5z" glyph-name="dieresis" horiz-adv-x="333" unicode="¨"/>
<glyph d="M370 728q93 0 181.5 -47.5t137.5 -136t49 -185.5q0 -95 -48.5 -183t-136 -136.5t-183.5 -48.5t-183.5 48.5t-136.5 136.5t-49 183q0 97 50 185.5t138 136t181 47.5zM370 667q-78 0 -151 -40t-114.5 -114t-41.5 -154q0 -79 40.5 -152t114 -114t152.5 -41q80 0 153 41 t113.5 114t40.5 152q0 80 -41 154t-115 114t-151 40zM488 300l60 -18q-14 -61 -62 -97.5t-115 -36.5q-86 0 -140 56t-54 154q0 65 24.5 112.5t69.5 71.5t104 24q64 0 107 -31t59 -84l-58 -14q-15 36 -43.5 55.5t-66.5 19.5q-57 0 -93 -40t-36 -115t34.5 -113t88.5 -38 q44 0 77.5 25t43.5 69z" glyph-name="copyright" horiz-adv-x="737" unicode="©"/>
<glyph d="M268 417q-60 -53 -125 -53q-56 0 -88 30t-32 77q0 24 8 41.5t23 31t40 21.5q17 6 48 11l72 10q35 7 47 10q-1 34 -7 46t-23.5 20.5t-46.5 8.5q-38 0 -57.5 -16t-23.5 -45l-67 16q6 44 43 73t106 29q80 0 113 -30t33 -88v-117v-30q0 -66 20 -90h-73q-9 20 -10 44zM260 539 q-26 -7 -93 -18q-44 -6 -58 -19q-13 -12 -13 -31q0 -20 16.5 -34t46.5 -14q36 0 62.5 19t34.5 47q4 10 4 50z" glyph-name="ordfeminine" horiz-adv-x="370" unicode="ª"/>
<glyph d="M177 259l137 -182q16 -29 -8 -28h-67q-18 -3 -31 17l-122 162q-8 9 -8 17v31q2 11 9 18l116 152q11 23 37 23h59q27 1 7 -28zM343 259l137 -182q16 -29 -8 -28h-67q-18 -3 -31 17l-122 162q-7 9 -8 17v31q2 11 9 18l116 152q12 23 37 23h59q28 1 7 -28z" glyph-name="guillemotleft" horiz-adv-x="556" unicode="«"/>
<glyph d="M528 207h-83v214h-389v82h472v-296z" glyph-name="logicalnot" horiz-adv-x="584" unicode="¬"/>
<glyph d="M32 215v88h270v-88h-270z" glyph-name="uni00AD" horiz-adv-x="333" unicode="­"/>
<glyph d="M370 728q93 0 181.5 -47.5t137.5 -136t49 -185.5q0 -95 -48.5 -183t-136 -136.5t-183.5 -48.5t-183.5 48.5t-136.5 136.5t-49 183q0 97 50 185.5t138 136t181 47.5zM370 667q-78 0 -151 -40t-114.5 -114t-41.5 -154q0 -79 40.5 -152t114 -114t152.5 -41q80 0 153 41 t113.5 114t40.5 152q0 80 -41 154t-115 114t-151 40zM208 156v396h137q70 0 101 -11t49.5 -38t18.5 -58q0 -44 -31 -76t-82 -36q21 -9 34 -21q23 -23 58 -79l49 -77h-79l-35 62q-41 74 -67 93q-17 13 -51 13h-38v-168h-64zM272 379h78q56 0 76 16.5t20 43.5q0 18 -9.5 32 t-27 21t-64.5 7h-73v-120z" glyph-name="registered" horiz-adv-x="737" unicode="®"/>
<glyph d="M-15 765v63h582v-63h-582z" glyph-name="macron" horiz-adv-x="552" unicode="¯"/>
<glyph d="M350 664q-13 -137 -150 -150q-137 13 -150 150q12 137 150 150q137 -13 150 -150zM120 664q7 -73 80 -80q73 7 80 80q-7 73 -81 80q-73 -8 -79 -80z" glyph-name="degree" unicode="°"/>
<glyph d="M789 -7h-580v103h580v-103zM791 379h-237v-220h-107v220h-236v102h236v223h107v-223h237v-102z" glyph-name="plusminus" unicode="±"/>
<glyph d="M12 358q3 28 23 56q31 42 101.5 93t83.5 65q18 20 18 41q0 24 -17 39t-51 15q-32 0 -48 -11.5t-26 -44.5l-74 8q15 54 49.5 80t100.5 26q74 0 108 -29t34 -71q0 -41 -28 -77q-22 -27 -100 -84q-41 -29 -58 -47h188v-59h-304z" glyph-name="uni00B2" horiz-adv-x="333" unicode="²"/>
<glyph d="M16 454l71 7q10 -29 26 -40q21 -15 50 -15q34 0 55 19t21 46q0 25 -17.5 39.5t-59.5 14.5q-6 0 -16 -1q-7 -1 -11 -1l11 54q39 0 57.5 14.5t18.5 35.5q0 18 -15 30.5t-43 12.5t-43.5 -10.5t-26.5 -38.5l-70 11q20 52 50.5 72.5t89.5 20.5q70 0 102 -26.5t32 -65.5 q0 -27 -17 -48t-50 -30q43 -11 63.5 -35.5t20.5 -57.5q0 -45 -38.5 -79t-109.5 -34q-68 0 -104.5 27t-46.5 78z" glyph-name="uni00B3" horiz-adv-x="333" unicode="³"/>
<glyph d="M308 720h-125q-16 0 -20 -12l-57 -129q-6 -16 6 -16q86 -9 138 66l42 58q15 15 33 17q-2 14 -17 16z" glyph-name="acute" horiz-adv-x="333" unicode="´"/>
<glyph d="M497 519v-519h-79v62q-25 -40 -50 -54q-34 -20 -79 -20q-41 0 -72 16q-24 12 -52 48v-251h-87v718h87v-220q0 -120 12.5 -155.5t41.5 -56t66 -20.5q39 0 69.5 21.5t43.5 55.5t13 153v222h86z" glyph-name="mu" horiz-adv-x="576" unicode="µ"/>
<glyph d="M198 -199v511q-92 4 -145 58.5t-53 139.5q0 94 59 150t172 56h310v-85h-71v-830h-83v830h-109v-830h-80z" glyph-name="paragraph" horiz-adv-x="537" unicode="¶"/>
<glyph d="M400 361q0 -39 25 -67q30 -32 74 -32t74 32q25 28 26 67q-1 38 -26 67q-30 32 -74 33q-39 -1 -67 -26q-32 -30 -32 -74z" glyph-name="periodcentered" unicode="·"/>
<glyph d="M113 -76q-15 1 -12 16l21 71h74l-14 -47q-1 -5 3 -6q38 -5 58 -25q21 -20 21 -46q0 -36 -35.5 -64.5t-105.5 -28.5q-40 0 -84 8q-3 2 -1 7q16 46 34 51q14 -1 44 -4q33 -1 49 12q14 10 14 24q0 9 -5.5 16t-19 11.5t-41.5 4.5z" glyph-name="cedilla" horiz-adv-x="333" unicode="¸"/>
<glyph d="M162 358v270q-50 -39 -110 -55v60q31 10 68 36t60 56h52v-367h-70z" glyph-name="uni00B9" horiz-adv-x="333" unicode="¹"/>
<glyph d="M182 728q71 0 115.5 -49t44.5 -135q0 -85 -45 -134t-114 -49q-71 0 -116 48t-45 133q0 88 44.5 137t115.5 49zM182 663q-39 0 -63.5 -28t-24.5 -91q0 -61 25 -89.5t63 -28.5q39 0 63.5 28.5t24.5 92.5q0 59 -24.5 87.5t-63.5 28.5z" glyph-name="ordmasculine" horiz-adv-x="365" unicode="º"/>
<glyph d="M386 259l-129 182q-21 29 7 28h59q25 0 37 -23l116 -152q7 -7 9 -18l-1 -31q0 -8 -7 -17l-122 -162q-13 -20 -31 -17h-67q-24 -1 -8 28zM220 259l-129 182q-21 29 7 28h59q25 0 37 -23l116 -152q7 -7 9 -18l-1 -31q0 -8 -8 -17l-121 -162q-13 -20 -31 -17h-67 q-25 -1 -8 28z" glyph-name="guillemotright" horiz-adv-x="556" unicode="»"/>
<glyph d="M123 -28l538 756h76l-537 -756h-77zM162 358v270q-50 -39 -110 -55v60q31 10 68 36t60 56h52v-367h-70zM698 -15v75h-187v60l198 232h60v-239h50v-53h-50v-75h-71zM698 113v128l-112 -128h112z" glyph-name="onequarter" horiz-adv-x="834" unicode="¼"/>
<glyph d="M111 -28l538 756h77l-538 -756h-77zM162 358v270q-50 -39 -110 -55v60q31 10 68 36t60 56h52v-367h-70zM512 -15q3 27 24 55q30 43 100.5 93.5t83.5 65.5q18 20 18 41q0 24 -17 38.5t-51 14.5q-32 0 -48 -11t-26 -44l-74 8q15 54 50 80t100 26q74 0 108 -29t34 -71 q0 -41 -28 -77q-22 -28 -100 -84q-41 -30 -58 -47h188v-59h-304z" glyph-name="onehalf" horiz-adv-x="834" unicode="½"/>
<glyph d="M123 -28l538 756h76l-537 -756h-77zM16 454l71 7q10 -29 26 -40q21 -15 50 -15q34 0 55 19t21 46q0 25 -17.5 39.5t-58.5 14.5q-24 -2 -28 -2l11 54q39 0 57.5 14.5t18.5 35.5q0 18 -15 30.5t-43 12.5t-43.5 -10.5t-26.5 -38.5l-70 11q20 52 50.5 72.5t89.5 20.5 q70 0 102 -26.5t32 -65.5q0 -27 -17 -48t-50 -30q43 -11 63.5 -35.5t20.5 -57.5q0 -45 -38.5 -79t-109.5 -34q-68 0 -104.5 27t-46.5 78zM698 -15v75h-187v60l197 232h61v-239h50v-53h-50v-75h-71zM698 113v128l-112 -128h112z" glyph-name="threequarters" horiz-adv-x="834" unicode="¾"/>
<glyph d="M387 450q0 -35 -22.5 -56.5t-60.5 -21.5q-37 0 -59.5 21.5t-22.5 56.5q0 34 22.5 56t59.5 22q38 0 60.5 -22t22.5 -56zM301 -212q-193 9 -211 153v20q6 139 126 197q18 6 22 24v66q0 35 34 38l59 1q41 1 41 -37q0 29 -1 -94q4 -34 -81 -87q-63 -43 -60.5 -123t68.5 -89 q50 1 67 39q17 52 12 103q-1 17 12 21h115q13 -2 13 -17l1 -32q0 -126 -114 -168q-45 -16 -103 -15z" glyph-name="questiondown" horiz-adv-x="611" unicode="¿"/>
<glyph d="M309 743h104q28 2 36 -23q258 -748 258 -759q0 -8 -8 -8h-43q-121 0 -178 145q-21 56 -23 62h-260q-2 -5 -57 -175q-7 -13 -27 -22q-35 -14 -82 -10q-8 0 -8 8q32 115 252 759q10 24 36 23zM329 568l-103 -312h201v4l-94 308h-4zM237 921q-15 -2 -17 -15q17 -2 33 -17 l42 -58q52 -75 138 -66q12 0 6 15l-57 130q-5 11 -20 11h-125z" glyph-name="Agrave" horiz-adv-x="727" unicode="À"/>
<glyph d="M309 743h104q28 2 36 -23q258 -748 258 -759q0 -8 -8 -8h-43q-121 0 -178 145q-21 56 -23 62h-260q-2 -5 -57 -175q-7 -13 -27 -22q-35 -14 -82 -10q-8 0 -8 8q32 115 252 759q10 24 36 23zM329 568l-103 -312h201v4l-94 308h-4zM476 921h-125q-16 0 -20 -11l-57 -130 q-6 -15 5 -15q87 -9 139 66l42 58q15 15 32 17q-1 13 -16 15z" glyph-name="Aacute" horiz-adv-x="727" unicode="Á"/>
<glyph d="M309 743h104q28 2 36 -23q258 -748 258 -759q0 -8 -8 -8h-43q-121 0 -178 145q-21 56 -23 62h-260q-2 -5 -57 -175q-7 -13 -27 -22q-35 -14 -82 -10q-8 0 -8 8q32 115 252 759q10 24 36 23zM329 568l-103 -312h201v4l-94 308h-4zM370 942q14 0 23 -11l145 -145 q5 -8 -5 -9h-90q-23 1 -32 13q-50 54 -52 57v0l-56 -58q-11 -13 -29 -12h-78h-7q-7 0 -9 6l148 148q7 9 20 11h22z" glyph-name="Acircumflex" horiz-adv-x="725" unicode="Â"/>
<glyph d="M306 743h104q28 2 36 -23q258 -748 258 -759q0 -8 -8 -8h-43q-121 0 -178 145q-21 56 -23 62h-260q-2 -5 -57 -175q-7 -13 -27 -22q-35 -14 -82 -10q-8 0 -8 8q32 115 252 759q10 24 36 23zM326 568l-103 -312h201v4l-94 308h-4zM301 927q14 0 29.5 -6t33 -14t35.5 -16.5 t34 -13.5q9 -3 16.5 -2.5t13.5 5t21 22t40 6.5q-12 -46 -21.5 -65t-21 -31t-26.5 -17.5t-34 -5.5q-13 0 -29 6t-33.5 14.5t-35 16.5t-34.5 13q-18 6 -29.5 -2t-19.5 -18.5t-20 -13t-22 4.5q13 44 22 63t20.5 31t26.5 17.5t34 5.5z" glyph-name="Atilde" horiz-adv-x="722" unicode="Ã"/>
<glyph d="M306 743h104q28 2 36 -23q258 -748 258 -759q0 -8 -8 -8h-43q-121 0 -178 145q-21 56 -23 62h-260q-2 -5 -57 -175q-7 -13 -27 -22q-35 -14 -82 -10q-8 0 -8 8q32 115 252 759q10 24 36 23zM326 568l-103 -312h201v4l-94 308h-4zM254 787q-23 0 -39 16.5t-16 39.5t16 39 t39 16q24 0 40 -16t16 -39t-16 -39.5t-40 -16.5zM459 787q-23 0 -39.5 16.5t-16.5 39.5t16.5 39.5t39.5 16.5t39 -16.5t16 -39.5t-16 -39.5t-39 -16.5z" glyph-name="Adieresis" horiz-adv-x="722" unicode="Ä"/>
<glyph d="M-1 0l274 716h102l293 -716h-107l-84 217h-299l-79 -217h-100zM205 294h243l-75 198q-34 91 -51 149q-13 -69 -38 -137zM235 782q0 35 26 61t62 26t62 -26t26 -63q0 -38 -26 -64t-62 -26t-62 26.5t-26 65.5zM272 781q0 -23 15.5 -38.5t36.5 -15.5t36 15.5t15 37.5 t-15 37.5t-36 15.5t-36.5 -15t-15.5 -37z" glyph-name="Aring" horiz-adv-x="667" unicode="Å"/>
<glyph d="M944 746q13 0 21 -8l23 -106v-13q-4 -12 -15 -13q-28 40 -82 38h-250v-225h283q12 -4 12 -17v-67q-1 -15 -16 -17q-252 -1 -279 -1v-4v-233h239q85 5 85 39h12q10 -4 11 -17l-15 -138q-5 -13 -18 -12h-471q-17 9 -16 35v762zM418 645l-120 -384h170v4v380h-50zM316 749 h164q7 -594 5 -587h-224q-2 -5 -57 -177q-7 -13 -27 -22q-37 -14 -142 -10q-8 0 -8 8q32 116 253 765q10 24 36 23z" glyph-name="AE" horiz-adv-x="1010" unicode="Æ"/>
<glyph d="M639 754q10 3 14 -8l37 -222q3 -21 -17 -21h-2l-39 1q-14 1 -17 14q-74 127 -199 135q-129 0 -183 -133q-29 -82 -29 -171q0 -261 166 -303q17 -4 33 -4h38q100 0 212 101q12 9 21 0l33 -27q9 -6 7 -17q-43 -75 -133 -122q-81 -35 -174 -35q-322 3 -382 310q-8 42 -8 118 q0 245 224 349q68 29 166 29q90 0 200 -45q27 12 32 51zM300 -129q-15 2 -12 16l21 72h74l-15 -48q-1 -5 4 -5q38 -6 57 -25q21 -21 21 -46q0 -37 -35 -65t-106 -28q-40 0 -83 8q-3 2 -1 6q16 46 33 52q15 -1 44 -4q34 -1 50 12q14 9 14 24q0 8 -5.5 15t-19.5 12t-41 4z" glyph-name="Ccedilla" horiz-adv-x="733" unicode="Ç"/>
<glyph d="M54 748h513q13 0 21 -8l23 -106v-13q-4 -12 -15 -13q-28 40 -82 38h-250v-225h283q12 -4 12 -17v-67q-1 -15 -16 -17q-252 -1 -279 -1v-4v-233h239q85 5 85 39h12q10 -4 11 -17l-15 -138q-5 -13 -18 -12h-471q-17 9 -16 35v636q0 62 -70 98q9 25 33 25zM221 921 q-15 -2 -16 -15q17 -2 32 -17l42 -58q52 -75 138 -66q12 0 6 15l-57 130q-4 11 -20 11h-125z" glyph-name="Egrave" horiz-adv-x="653" unicode="È"/>
<glyph d="M54 748h513q13 0 21 -8l23 -106v-13q-4 -12 -15 -13q-28 40 -82 38h-250v-225h283q12 -4 12 -17v-67q-1 -15 -16 -17q-252 -1 -279 -1v-4v-233h239q85 5 85 39h12q10 -4 11 -17l-15 -138q-5 -13 -18 -12h-471q-17 9 -16 35v636q0 62 -70 98q9 25 33 25zM451 921h-125 q-16 0 -20 -11l-57 -130q-6 -15 5 -15q87 -9 139 66l42 58q15 15 32 17q-1 13 -16 15z" glyph-name="Eacute" horiz-adv-x="667" unicode="É"/>
<glyph d="M54 748h513q13 0 21 -8l23 -106v-13q-4 -12 -15 -13q-28 40 -82 38h-250v-225h283q12 -4 12 -17v-67q-1 -15 -16 -17q-252 -1 -279 -1v-4v-233h239q85 5 85 39h12q10 -4 11 -17l-15 -138q-5 -13 -18 -12h-471q-17 9 -16 35v636q0 62 -70 98q9 25 33 25zM350 942 q15 0 23 -11l146 -145q5 -8 -6 -9h-90q-22 1 -31 13q-50 54 -52 57v0l-56 -58q-11 -13 -29 -12h-78h-7q-7 0 -9 6l148 148q7 9 20 11h21z" glyph-name="Ecircumflex" horiz-adv-x="652" unicode="Ê"/>
<glyph d="M54 748h513q13 0 21 -8l23 -106v-13q-4 -12 -15 -13q-28 40 -82 38h-250v-225h283q12 -4 12 -17v-67q-1 -15 -16 -17q-252 -1 -279 -1v-4v-233h239q85 5 85 39h12q10 -4 11 -17l-15 -138q-5 -13 -18 -12h-471q-17 9 -16 35v636q0 62 -70 98q9 25 33 25zM233 787 q-25 0 -43 17.5t-18 42.5t18 42.5t43 17.5t42.5 -17.5t17.5 -42.5t-17.5 -42.5t-42.5 -17.5zM436 787q-25 0 -42.5 17.5t-17.5 42.5t17.5 42.5t42.5 17.5t42.5 -17.5t17.5 -42.5t-17.5 -42.5t-42.5 -17.5z" glyph-name="Edieresis" horiz-adv-x="657" unicode="Ë"/>
<glyph d="M49 748h286q17 -6 21 -21v-4q-71 -43 -71 -103v-541q0 -60 71 -103v-4q-3 -17 -21 -20h-286q-20 3 -21 20v4q72 43 72 103v541q0 60 -72 103v4q4 15 21 21zM70 921q-15 -2 -16 -15q17 -2 32 -17l42 -58q52 -75 139 -66q11 0 5 15l-57 130q-4 11 -20 11h-125z" glyph-name="Igrave" horiz-adv-x="390" unicode="Ì"/>
<glyph d="M50 748h286q17 -6 21 -21v-4q-71 -43 -71 -103v-541q0 -60 71 -103v-4q-3 -17 -21 -20h-286q-20 3 -21 20v4q72 43 72 103v541q0 60 -72 103v4q4 15 21 21zM298 921h-125q-16 0 -20 -11l-57 -130q-6 -15 6 -15q86 -9 138 66l42 58q15 15 32 17q-1 13 -16 15z" glyph-name="Iacute" horiz-adv-x="386" unicode="Í"/>
<glyph d="M49 748h286q17 -6 21 -21v-4q-71 -43 -71 -103v-541q0 -60 71 -103v-4q-3 -17 -21 -20h-286q-20 3 -21 20v4q72 43 72 103v541q0 60 -72 103v4q4 15 21 21zM198 933q12 0 20 -10l126 -126q4 -7 -5 -8h-78q-20 1 -27 12q-44 47 -45 49v0l-49 -50q-9 -12 -26 -11h-67h-6 q-6 0 -8 6l129 128q6 8 17 10h19z" glyph-name="Icircumflex" horiz-adv-x="392" unicode="Î"/>
<glyph d="M49 748h286q17 -6 21 -21v-4q-71 -43 -71 -103v-541q0 -60 71 -103v-4q-3 -17 -21 -20h-286q-20 3 -21 20v4q72 43 72 103v541q0 60 -72 103v4q4 15 21 21zM84 788q-25 0 -42.5 17.5t-17.5 42.5t17.5 42.5t42.5 17.5t42.5 -17.5t17.5 -42.5t-17.5 -42.5t-42.5 -17.5z M288 788q-25 0 -43 17.5t-18 42.5t18 42.5t43 17.5q24 0 42 -17.5t18 -42.5t-18 -42.5t-42 -17.5z" glyph-name="Idieresis" horiz-adv-x="391" unicode="Ï"/>
<glyph d="M29 311q-16 0 -13 17v61q-1 14 13 15h215h142q27 -5 38 -86q0 -7 -6 -7h-389zM48 745h332q251 0 341 -199q38 -73 38 -196q0 -268 -217 -373q-69 -30 -166 -30h-241q-33 0 -33 35v640q0 56 -70 101v4q2 14 16 18zM276 642v-554q-2 -19 17 -20q287 -10 287 286 q0 225 -150 276q-41 12 -108 12h-46z" glyph-name="Eth" horiz-adv-x="786" unicode="Ð"/>
<glyph d="M368 911q13 0 28.5 -6t33 -14t35.5 -16.5t34 -13.5q9 -3 16.5 -2.5t13.5 5t21 22t40 6.5q-12 -46 -21 -65t-21 -31t-27 -17.5t-34 -5.5q-13 0 -29 6t-33.5 14.5t-35 16.5t-34.5 13q-18 6 -29 -2t-19.5 -18.5t-20.5 -13t-22 4.5q13 44 22 63t20.5 31t27 17.5t34.5 5.5z M44 746h199q35 1 51 -25l324 -457v328q0 96 -75 133q6 21 29 21h224q12 -4 17 -16v-9q-76 -18 -79 -116v-637q-1 -12 -17 -17h-64q-43 0 -72 44l-375 556v-467q0 -99 -75 -129q-31 -9 -38 -9l-4 9v637q0 96 -75 133q7 21 30 21z" glyph-name="Ntilde" horiz-adv-x="829" unicode="Ñ"/>
<glyph d="M15 353q0 94 28.5 169t78.5 127t119.5 79.5t151.5 27.5t151.5 -27.5t119.5 -79.5t78.5 -127t28.5 -169t-28.5 -169t-78.5 -127t-119.5 -79.5t-151.5 -27.5t-151.5 27.5t-119.5 79.5t-78.5 127t-28.5 169zM585 353q0 72 -14 128.5t-39 96.5t-60.5 61t-78.5 21t-78.5 -21 t-60.5 -61t-39 -96.5t-14 -128.5t14 -128.5t39 -96.5t60.5 -61t78.5 -21t78.5 21t60.5 61t39 96.5t14 128.5zM263 921q-15 -2 -16 -15q17 -2 32 -17l42 -58q52 -75 139 -66q11 0 5 15l-57 130q-4 11 -20 11h-125z" glyph-name="Ograve" horiz-adv-x="788" unicode="Ò"/>
<glyph d="M15 353q0 94 28.5 169t78.5 127t119.5 79.5t151.5 27.5t151.5 -27.5t119.5 -79.5t78.5 -127t28.5 -169t-28.5 -169t-78.5 -127t-119.5 -79.5t-151.5 -27.5t-151.5 27.5t-119.5 79.5t-78.5 127t-28.5 169zM585 353q0 72 -14 128.5t-39 96.5t-60.5 61t-78.5 21t-78.5 -21 t-60.5 -61t-39 -96.5t-14 -128.5t14 -128.5t39 -96.5t60.5 -61t78.5 -21t78.5 21t60.5 61t39 96.5t14 128.5zM499 921h-125q-16 0 -20 -11l-57 -130q-6 -15 5 -15q87 -9 139 66l42 58q15 15 32 17q-1 13 -16 15z" glyph-name="Oacute" horiz-adv-x="788" unicode="Ó"/>
<glyph d="M15 353q0 94 28.5 169t78.5 127t119.5 79.5t151.5 27.5t151.5 -27.5t119.5 -79.5t78.5 -127t28.5 -169t-28.5 -169t-78.5 -127t-119.5 -79.5t-151.5 -27.5t-151.5 27.5t-119.5 79.5t-78.5 127t-28.5 169zM585 353q0 72 -14 128.5t-39 96.5t-60.5 61t-78.5 21t-78.5 -21 t-60.5 -61t-39 -96.5t-14 -128.5t14 -128.5t39 -96.5t60.5 -61t78.5 -21t78.5 21t60.5 61t39 96.5t14 128.5zM399 942q15 0 23 -11l145 -145q5 -8 -5 -9h-90q-23 1 -31 13q-50 54 -52 57v0l-56 -58q-11 -13 -30 -12h-77h-8q-7 0 -8 6l148 148q6 9 20 11h21z" glyph-name="Ocircumflex" horiz-adv-x="785" unicode="Ô"/>
<glyph d="M15 353q0 94 28.5 169t78.5 127t119.5 79.5t151.5 27.5t151.5 -27.5t119.5 -79.5t78.5 -127t28.5 -169t-28.5 -169t-78.5 -127t-119.5 -79.5t-151.5 -27.5t-151.5 27.5t-119.5 79.5t-78.5 127t-28.5 169zM585 353q0 72 -14 128.5t-39 96.5t-60.5 61t-78.5 21t-78.5 -21 t-60.5 -61t-39 -96.5t-14 -128.5t14 -128.5t39 -96.5t60.5 -61t78.5 -21t78.5 21t60.5 61t39 96.5t14 128.5zM325 911q13 0 29 -6t33.5 -14t35 -16.5t34.5 -13.5q9 -3 16.5 -2.5t13 5t21 22t40.5 6.5q-12 -46 -21.5 -65t-21 -31t-26.5 -17.5t-34 -5.5q-13 0 -29 6 t-33.5 14.5t-35.5 16.5t-34 13q-19 6 -30 -2t-19 -18.5t-20.5 -13t-21.5 4.5q12 44 21.5 63t21 31t26.5 17.5t34 5.5z" glyph-name="Otilde" horiz-adv-x="787" unicode="Õ"/>
<glyph d="M15 353q0 94 28.5 169t78.5 127t119.5 79.5t151.5 27.5t151.5 -27.5t119.5 -79.5t78.5 -127t28.5 -169t-28.5 -169t-78.5 -127t-119.5 -79.5t-151.5 -27.5t-151.5 27.5t-119.5 79.5t-78.5 127t-28.5 169zM585 353q0 72 -14 128.5t-39 96.5t-60.5 61t-78.5 21t-78.5 -21 t-60.5 -61t-39 -96.5t-14 -128.5t14 -128.5t39 -96.5t60.5 -61t78.5 -21t78.5 21t60.5 61t39 96.5t14 128.5zM298 787q-25 0 -42.5 17.5t-17.5 42.5t17.5 42.5t42.5 17.5t42.5 -17.5t17.5 -42.5t-17.5 -42.5t-42.5 -17.5zM501 787q-25 0 -42.5 17.5t-17.5 42.5t17.5 42.5 t42.5 17.5t42.5 -17.5t17.5 -42.5t-17.5 -42.5t-42.5 -17.5z" glyph-name="Odieresis" horiz-adv-x="789" unicode="Ö"/>
<glyph d="M35 522l167 -181l-166 -178l99 -100q82 88 164 177l165 -176l101 100l-168 177l168 181l-104 95l-162 -171l-160 171z" glyph-name="multiply" horiz-adv-x="600" unicode="×"/>
<glyph d="M610 650l82 92l49 -41l-86 -97q42 -62 56 -109q20 -61 20 -138q0 -109 -44.5 -195t-125 -130t-170.5 -44q-67 0 -122 19q-42 14 -98 56l-82 -92l-48 41l85 96q-47 73 -63.5 124.5t-16.5 123.5q0 111 44 197t123.5 130.5t176.5 44.5q66 0 115 -17.5t105 -60.5zM552 584 q-46 37 -80.5 50t-80.5 13q-107 0 -177 -72.5t-70 -216.5q0 -57 11 -101q8 -32 33 -80zM592 534l-363 -406q38 -31 69 -43q42 -16 90 -16q107 0 176 75t69 211q0 102 -41 179z" glyph-name="Oslash" horiz-adv-x="778" unicode="Ø"/>
<glyph d="M40 746h292q21 -1 21 -25q-73 1 -81 -126v-326q0 -206 166 -206h4q134 0 161 143v415q0 77 -72 107q2 15 17 18h240q20 -5 18 -25q-76 0 -81 -126v-393q0 -193 -246 -241q-33 -7 -67 -6q-231 0 -300 172q-17 36 -17 104v390q-6 90 -72 105q0 18 17 20zM300 921 q-15 -2 -17 -15q17 -2 33 -17l42 -58q52 -75 138 -66q12 0 6 15l-57 130q-5 11 -20 11h-125z" glyph-name="Ugrave" horiz-adv-x="822" unicode="Ù"/>
<glyph d="M40 746h292q21 -1 21 -25q-73 1 -81 -126v-326q0 -206 166 -206h4q134 0 161 143v415q0 77 -72 107q2 15 17 18h240q20 -5 18 -25q-76 0 -81 -126v-393q0 -193 -246 -241q-33 -7 -67 -6q-231 0 -300 172q-17 36 -17 104v390q-6 90 -72 105q0 18 17 20zM574 921h-125 q-15 0 -20 -11l-57 -130q-6 -15 6 -15q86 -9 138 66l42 58q16 15 33 17q-2 13 -17 15z" glyph-name="Uacute" horiz-adv-x="825" unicode="Ú"/>
<glyph d="M40 746h292q21 -1 21 -25q-73 1 -81 -126v-326q0 -206 166 -206h4q134 0 161 143v415q0 77 -72 107q2 15 17 18h240q20 -5 18 -25q-76 0 -81 -126v-393q0 -193 -246 -241q-33 -7 -67 -6q-231 0 -300 172q-17 36 -17 104v390q-6 90 -72 105q0 18 17 20zM445 942 q15 0 23 -11l146 -145q5 -8 -6 -9h-90q-22 1 -31 13q-50 54 -52 57v0l-56 -58q-11 -13 -30 -12h-77h-7q-7 0 -9 6l148 148q7 9 20 11h21z" glyph-name="Ucircumflex" horiz-adv-x="821" unicode="Û"/>
<glyph d="M40 746h292q21 -1 21 -25q-73 1 -81 -126v-326q0 -206 166 -206h4q134 0 161 143v415q0 77 -72 107q2 15 17 18h240q20 -5 18 -25q-76 0 -81 -126v-393q0 -193 -246 -241q-33 -7 -67 -6q-231 0 -300 172q-17 36 -17 104v390q-6 90 -72 105q0 18 17 20zM321 787 q-25 0 -43 17.5t-18 42.5t18 42.5t43 17.5t42.5 -17.5t17.5 -42.5t-17.5 -42.5t-42.5 -17.5zM524 787q-25 0 -42.5 17.5t-17.5 42.5t17.5 42.5t42.5 17.5t42.5 -17.5t17.5 -42.5t-17.5 -42.5t-42.5 -17.5z" glyph-name="Udieresis" horiz-adv-x="824" unicode="Ü"/>
<glyph d="M42 744h291q11 -3 12 -12v-4q-53 -29 -48 -59q0 -19 131 -258l136 259q14 40 -48 58q2 12 16 16h215q16 -5 16 -16v-4q-61 -16 -90 -60l-193 -375v-160q0 -141 -127 -174q-15 -4 -32 -4h-4q-8 0 -8 8v329l-207 389q-31 34 -76 43v8q2 11 16 16zM567 921h-125 q-16 0 -20 -11l-57 -130q-6 -15 5 -15q87 -9 138 66l43 58q15 15 32 17q-1 13 -16 15z" glyph-name="Yacute" horiz-adv-x="791" unicode="Ý"/>
<glyph d="M77 0v716h95v-146h175q71 0 110 -7q52 -9 88 -33.5t57.5 -69t21.5 -97.5q0 -91 -58.5 -154t-210.5 -63h-183v-146h-95zM172 230h185q92 0 130.5 34t38.5 96q0 44 -22.5 76.5t-59.5 42.5q-24 7 -89 7h-183v-256z" glyph-name="Thorn" horiz-adv-x="667" unicode="Þ"/>
<glyph d="M53 -50q-14 -1 -15 18v518q0 96 28.5 147.5t83 81t122.5 29.5q91 0 143 -45.5t52 -105.5q0 -10 -2 -21q-2 -17 -8 -34q-9 -28 -32.5 -70t-30 -58.5t-6.5 -29.5q0 -17 12 -33q19 -16 76.5 -57t80.5 -69q34 -40 34 -95q0 -73 -54 -125t-138 -52q-66 0 -116 35 q-35 31 -56 77q-9 15 3 25l47 23q14 6 22 0q15 -22 40.5 -40.5t53.5 -18.5q37 -4 58 17t20 51q0 29 -17 50q-11 14 -55 46q-96 60 -117 90t-21 61q0 21 7 42t78 154q3 29 -18 51.5t-56 21.5q-45 -5 -69 -37.5t-24 -114.5v-447q1 -12 -4 -19q-46 -51 -122 -66z" glyph-name="germandbls" horiz-adv-x="612" unicode="ß"/>
<glyph d="M254 40q38 0 63 21.5t25 57.5v110q-18 -3 -39 -9t-40 -14q-38 -14 -56.5 -40t-18.5 -58q0 -33 17.5 -50.5t48.5 -17.5zM284 521q163 0 208 -124q10 -26 12 -65v-172q0 -163 58 -182q10 0 10 -7v-4q0 -6 -10 -12h-85q-75 0 -101 78v3h-4q-46 -85 -150 -85q-190 1 -190 152 q1 159 309 205v39q-1 86 -69 93h-19q-73 -13 -77 -96q0 -17 -12 -16h-97q-8 -1 -11 11v20q0 111 139 151q39 11 89 11zM168 722q-15 -2 -17 -16q17 -2 33 -17l42 -58q52 -75 138 -66q12 0 6 16l-57 129q-5 12 -20 12h-125z" glyph-name="agrave" horiz-adv-x="572" unicode="à"/>
<glyph d="M254 40q38 0 63 21.5t25 57.5v110q-18 -3 -39 -9t-40 -14q-38 -14 -56.5 -40t-18.5 -58q0 -33 17.5 -50.5t48.5 -17.5zM284 521q163 0 208 -124q10 -26 12 -65v-172q0 -163 58 -182q10 0 10 -7v-4q0 -6 -10 -12h-85q-75 0 -101 78v3h-4q-46 -85 -150 -85q-190 1 -190 152 q1 159 309 205v39q-1 86 -69 93h-19q-73 -13 -77 -96q0 -17 -12 -16h-97q-8 -1 -11 11v20q0 111 139 151q39 11 89 11zM404 722h-126q-15 0 -20 -12l-57 -129q-5 -16 6 -16q86 -9 138 66l42 58q16 15 33 17q-2 14 -16 16z" glyph-name="aacute" horiz-adv-x="572" unicode="á"/>
<glyph d="M254 40q38 0 63 21.5t25 57.5v110q-18 -3 -39 -9t-40 -14q-38 -14 -56.5 -40t-18.5 -58q0 -33 17.5 -50.5t48.5 -17.5zM284 521q163 0 208 -124q10 -26 12 -65v-172q0 -163 58 -182q10 0 10 -7v-4q0 -6 -10 -12h-85q-75 0 -101 78v3h-4q-46 -85 -150 -85q-190 1 -190 152 q1 159 309 205v39q-1 86 -69 93h-19q-73 -13 -77 -96q0 -17 -12 -16h-97q-8 -1 -11 11v20q0 111 139 151q39 11 89 11zM286 717q13 1 20 -9l126 -126q5 -7 -4 -8h-78q-20 1 -28 11q-43 47 -45 50v0l-48 -51q-10 -11 -26 -10h-67h-7q-6 0 -7 6l128 128q6 8 18 9h18z" glyph-name="acircumflex" horiz-adv-x="556" unicode="â"/>
<glyph d="M254 40q38 0 63 21.5t25 57.5v110q-18 -3 -39 -9t-40 -14q-38 -14 -56.5 -40t-18.5 -58q0 -33 17.5 -50.5t48.5 -17.5zM284 521q163 0 208 -124q10 -26 12 -65v-172q0 -163 58 -182q10 0 10 -7v-4q0 -6 -10 -12h-85q-75 0 -101 78v3h-4q-46 -85 -150 -85q-190 1 -190 152 q1 159 309 205v39q-1 86 -69 93h-19q-73 -13 -77 -96q0 -17 -12 -16h-97q-8 -1 -11 11v20q0 111 139 151q39 11 89 11zM219 718q13 0 28.5 -6t33 -14t35.5 -16.5t34 -13.5q10 -3 17 -2.5t13 5t21.5 22t39.5 6.5q-12 -46 -21 -65t-21 -31t-27 -17.5t-34 -5.5q-13 0 -28.5 6 t-33 14.5t-35.5 16.5t-34 13q-19 6 -30 -2t-19.5 -18.5t-20.5 -13t-22 4.5q13 44 22 63t21 31t27 17.5t34 5.5z" glyph-name="atilde" horiz-adv-x="572" unicode="ã"/>
<glyph d="M254 40q38 0 63 21.5t25 57.5v110q-18 -3 -39 -9t-40 -14q-38 -14 -56.5 -40t-18.5 -58q0 -33 17.5 -50.5t48.5 -17.5zM284 521q163 0 208 -124q10 -26 12 -65v-172q0 -163 58 -182q10 0 10 -7v-4q0 -6 -10 -12h-85q-75 0 -101 78v3h-4q-46 -85 -150 -85q-190 1 -190 152 q1 159 309 205v39q-1 86 -69 93h-19q-73 -13 -77 -96q0 -17 -12 -16h-97q-8 -1 -11 11v20q0 111 139 151q39 11 89 11zM178 579q-25 0 -42.5 17.5t-17.5 42.5t17.5 42.5t42.5 17.5t42.5 -17.5t17.5 -42.5t-17.5 -42.5t-42.5 -17.5zM382 579q-25 0 -43 17.5t-18 42.5t18 42.5 t43 17.5t42.5 -17.5t17.5 -42.5t-17.5 -42.5t-42.5 -17.5z" glyph-name="adieresis" horiz-adv-x="571" unicode="ä"/>
<glyph d="M404 64q-49 -42 -94 -59t-97 -17q-85 0 -131 42t-46 107q0 38 17.5 69.5t45.5 50.5t63 29q26 6 78 13q107 13 157 30v23q0 54 -24 76q-34 30 -101 30q-62 0 -91.5 -22t-43.5 -77l-86 12q12 55 39 89t77.5 52t117.5 18t108.5 -15.5t61 -39t26.5 -59.5q5 -23 5 -82v-117 q0 -122 5.5 -154.5t22.5 -62.5h-92q-14 27 -18 64zM397 260q-48 -19 -144 -33q-54 -8 -76.5 -17.5t-34.5 -28.5t-12 -42q0 -35 26.5 -58.5t77.5 -23.5t90.5 22.5t58.5 60.5q14 30 14 88v32zM187 653q0 36 26 62t62 26t62 -26.5t26 -63.5t-26 -63t-62 -26t-62 26t-26 65z M224 653q0 -23 15.5 -38.5t36.5 -15.5t36.5 15.5t15.5 37.5t-15.5 37.5t-36.5 15.5t-36.5 -15.5t-15.5 -36.5z" glyph-name="aring" horiz-adv-x="556" unicode="å"/>
<glyph d="M260 39q37 0 64.5 21.5t27.5 57.5v109q-18 -3 -41.5 -9t-41.5 -14q-38 -14 -56.5 -39.5t-18.5 -57.5q0 -33 17.5 -50.5t48.5 -17.5zM289 517q168 0 218 -123q9 -26 11 -64v-171l-92 -115q-90 -93 -198 -93q-189 1 -189 151q1 158 312 204v38q-1 86 -74 93h-18 q-73 -13 -77 -96q0 -16 -12 -15h-96q-8 -1 -11 11v19q0 111 138 150q39 11 88 11zM616 446q-42 0 -66.5 -36.5t-24.5 -123.5h189q3 76 -29.5 118.5t-68.5 41.5zM855 340q13 -57 12 -109q1 -38 -46 -38l-298 -2q-7 2 -5 -8q5 -105 106 -128.5t196 44.5q3 3 7 1q12 -9 27 -27 q6 -6 2 -11q-104 -117 -255 -109q-127 9 -180 104q13 -5 15 9q18 106 -21.5 279t185.5 176q212 -2 255 -181z" glyph-name="ae" horiz-adv-x="902" unicode="æ"/>
<glyph d="M317 509q207 0 242 -166q4 -28 4 -46q1 -18 -11 -20h-102q-8 4 -10 14q-15 128 -123 130q-120 -13 -122 -203q0 -143 117 -174.5t201 51.5q7 2 13 -1q14 -10 27 -28q7 -7 3 -16q-86 -111 -243 -111q-163 3 -227.5 93.5t-57.5 202.5q25 270 289 274zM239 -125 q-15 1 -12 16l21 71h74l-15 -48q-1 -4 4 -5q38 -5 57 -25q21 -21 21 -46q0 -37 -35 -65t-106 -28q-40 0 -83 8q-3 2 -1 7q16 46 33 51q15 -1 44 -4q34 -1 50 12q14 10 14 24q0 9 -5.5 15.5t-19.5 11.5t-41 5z" glyph-name="ccedilla" horiz-adv-x="591" unicode="ç"/>
<glyph d="M287 435q-35 0 -62 -36.5t-27 -123.5h199q3 76 -29 118.5t-81 41.5zM548 329q19 -59 12 -125q1 -22 -18 -22l-341 -2q-7 2 -5 -8q1 -108 109 -130t203 46q3 3 7 1q12 -9 27 -27q6 -6 2 -11q-104 -117 -255 -109q-187 7 -254 185q-9 41 -9 74v39q32 267 262 270 q195 0 260 -181zM188 722q-15 -2 -16 -16q17 -2 32 -17l43 -58q51 -75 138 -66q11 0 5 16l-57 129q-4 12 -20 12h-125z" glyph-name="egrave" horiz-adv-x="591" unicode="è"/>
<glyph d="M287 435q-35 0 -62 -36.5t-27 -123.5h199q3 76 -29 118.5t-81 41.5zM548 329q19 -59 12 -125q1 -22 -18 -22l-341 -2q-7 2 -5 -8q1 -108 109 -130t203 46q3 3 7 1q12 -9 27 -27q6 -6 2 -11q-104 -117 -255 -109q-187 7 -254 185q-9 41 -9 74v39q32 267 262 270 q195 0 260 -181zM405 722h-126q-15 0 -20 -12l-57 -129q-5 -16 6 -16q86 -9 138 66l42 58q16 15 33 17q-2 14 -16 16z" glyph-name="eacute" horiz-adv-x="589" unicode="é"/>
<glyph d="M287 435q-35 0 -62 -36.5t-27 -123.5h199q3 76 -29 118.5t-81 41.5zM548 329q19 -59 12 -125q1 -22 -18 -22l-341 -2q-7 2 -5 -8q1 -108 109 -130t203 46q3 3 7 1q12 -9 27 -27q6 -6 2 -11q-104 -117 -255 -109q-187 7 -254 185q-9 41 -9 74v39q32 267 262 270 q195 0 260 -181zM287 717q13 1 20 -9l126 -126q5 -7 -4 -8h-78q-20 1 -28 11q-43 47 -45 50v0l-48 -51q-10 -11 -26 -10h-67h-7q-6 0 -7 6l128 128q6 8 18 9h18z" glyph-name="ecircumflex" horiz-adv-x="591" unicode="ê"/>
<glyph d="M287 435q-35 0 -62 -36.5t-27 -123.5h199q3 76 -29 118.5t-81 41.5zM548 329q19 -59 12 -125q1 -22 -18 -22l-341 -2q-7 2 -5 -8q1 -108 109 -130t203 46q3 3 7 1q12 -9 27 -27q6 -6 2 -11q-104 -117 -255 -109q-187 7 -254 185q-9 41 -9 74v39q32 267 262 270 q195 0 260 -181zM188 579q-25 0 -42.5 17.5t-17.5 42.5t17.5 42.5t42.5 17.5t43 -17.5t18 -42.5t-18 -42.5t-43 -17.5zM392 579q-25 0 -43 17.5t-18 42.5t18 42.5t43 17.5t42.5 -17.5t17.5 -42.5t-17.5 -42.5t-42.5 -17.5z" glyph-name="edieresis" horiz-adv-x="592" unicode="ë"/>
<glyph d="M254 516q8 -3 8 -9v-461q3 -94 -137 -94q-34 1 -34 12v360q0 93 -72 127q-2 19 21 22q184 40 214 43zM37 722q-15 -2 -16 -16q17 -2 33 -17l42 -58q52 -75 138 -66q11 0 5 16l-56 129q-5 12 -21 12h-125z" glyph-name="igrave" horiz-adv-x="278" unicode="ì"/>
<glyph d="M259 516q8 -3 8 -9v-461q3 -94 -137 -94q-34 1 -34 12v360q0 93 -72 127q-2 19 21 22q184 40 214 43zM273 722h-126q-15 0 -20 -12l-57 -129q-6 -16 6 -16q86 -9 138 66l42 58q16 15 33 17q-2 14 -16 16z" glyph-name="iacute" horiz-adv-x="294" unicode="í"/>
<glyph d="M254 516q8 -3 8 -9v-461q3 -94 -137 -94q-34 1 -34 12v360q0 93 -72 127q-2 19 21 22q184 40 214 43zM165 717q12 1 20 -9l126 -126q4 -7 -5 -8h-78q-20 1 -27 11q-44 47 -45 50v0l-49 -51q-9 -11 -26 -10h-67h-6q-6 0 -8 6l129 128q6 8 17 9h19z" glyph-name="icircumflex" horiz-adv-x="305" unicode="î"/>
<glyph d="M265 516q8 -3 8 -9v-461q3 -94 -137 -94q-34 1 -34 12v360q0 93 -72 127q-2 19 21 22q184 40 214 43zM58 579q-25 0 -43 17.5t-18 42.5t18 42.5t43 17.5t42.5 -17.5t17.5 -42.5t-17.5 -42.5t-42.5 -17.5zM261 579q-25 0 -42.5 17.5t-17.5 42.5t17.5 42.5t42.5 17.5 t42.5 -17.5t17.5 -42.5t-17.5 -42.5t-42.5 -17.5z" glyph-name="idieresis" horiz-adv-x="318" unicode="ï"/>
<glyph d="M150 716h106q36 -27 61 -50l105 50l22 -50l-84 -41q156 -179 156 -371q0 -123 -68 -194.5t-173 -71.5q-124 0 -194 95q-45 62 -45 169q0 128 63 197.5t157 69.5q29 0 50.5 -6t53.5 -23q-18 35 -31 55t-38 49l-135 -62l-21 50l116 53q-47 44 -101 81zM425 258 q0 94 -44.5 143.5t-108.5 49.5t-105.5 -49.5t-41.5 -151.5q0 -95 43 -142.5t107 -47.5q62 0 106 50.5t44 147.5z" glyph-name="eth" horiz-adv-x="556" unicode="ð"/>
<glyph d="M384 514q177 -10 202 -148q4 -40 4 -62l1 -253q4 -77 -56.5 -93.5t-99.5 -10.5q-8 0 -8 7v354q0 112 -85 112q-57 0 -93 -46v-362q3 -64 -45 -66q-93 1 -107 1q-9 1 -11 11v393q0 57 -67 97v4q1 12 18 16q150 33 192 38q10 0 12 -10v-37q58 55 143 55zM259 718 q13 0 28.5 -6t33 -14t35.5 -16.5t34 -13.5q10 -3 17 -2.5t13 5t21 22t40 6.5q-12 -46 -21 -65t-21 -31t-27 -17.5t-34 -5.5q-13 0 -29 6t-33.5 14.5t-35 16.5t-34.5 13q-18 6 -29 -2t-19.5 -18.5t-20.5 -13t-22 4.5q13 44 22 63t20.5 31t27 17.5t34.5 5.5z" glyph-name="ntilde" horiz-adv-x="627" unicode="ñ"/>
<glyph d="M27 229q0 64 19.5 117t57 91t91.5 59.5t123 21.5t123 -21.5t91.5 -59.5t57 -91t19.5 -117t-19.5 -117t-57 -91t-91.5 -59.5t-123 -21.5t-123 21.5t-91.5 59.5t-57 91t-19.5 117zM197 229q0 -95 32 -148.5t89 -53.5t89 53.5t32 148.5t-32 148.5t-89 53.5t-89 -53.5 t-32 -148.5zM199 722q-14 -2 -16 -16q17 -2 33 -17l42 -58q52 -75 138 -66q11 0 6 16l-57 129q-5 12 -20 12h-126z" glyph-name="ograve" horiz-adv-x="629" unicode="ò"/>
<glyph d="M27 229q0 64 19.5 117t57 91t91.5 59.5t123 21.5t123 -21.5t91.5 -59.5t57 -91t19.5 -117t-19.5 -117t-57 -91t-91.5 -59.5t-123 -21.5t-123 21.5t-91.5 59.5t-57 91t-19.5 117zM197 229q0 -95 32 -148.5t89 -53.5t89 53.5t32 148.5t-32 148.5t-89 53.5t-89 -53.5 t-32 -148.5zM434 722h-125q-16 0 -20 -12l-57 -129q-6 -16 6 -16q86 -9 138 66l42 58q15 15 32 17q-1 14 -16 16z" glyph-name="oacute" horiz-adv-x="627" unicode="ó"/>
<glyph d="M27 229q0 64 19.5 117t57 91t91.5 59.5t123 21.5t123 -21.5t91.5 -59.5t57 -91t19.5 -117t-19.5 -117t-57 -91t-91.5 -59.5t-123 -21.5t-123 21.5t-91.5 59.5t-57 91t-19.5 117zM197 229q0 -95 32 -148.5t89 -53.5t89 53.5t32 148.5t-32 148.5t-89 53.5t-89 -53.5 t-32 -148.5zM332 717q12 1 20 -9l126 -126q4 -7 -5 -8h-78q-20 1 -27 11q-44 47 -45 50v0l-49 -51q-10 -11 -26 -10h-67h-7q-5 0 -7 6l128 128q6 8 18 9h19z" glyph-name="ocircumflex" horiz-adv-x="629" unicode="ô"/>
<glyph d="M27 229q0 64 19.5 117t57 91t91.5 59.5t123 21.5t123 -21.5t91.5 -59.5t57 -91t19.5 -117t-19.5 -117t-57 -91t-91.5 -59.5t-123 -21.5t-123 21.5t-91.5 59.5t-57 91t-19.5 117zM197 229q0 -95 32 -148.5t89 -53.5t89 53.5t32 148.5t-32 148.5t-89 53.5t-89 -53.5 t-32 -148.5zM259 718q13 0 28.5 -6t33 -14t35.5 -16.5t34 -13.5q10 -3 17 -2.5t13 5t21 22t40 6.5q-12 -46 -21 -65t-21 -31t-27 -17.5t-34 -5.5q-13 0 -29 6t-33.5 14.5t-35 16.5t-34.5 13q-18 6 -29 -2t-19.5 -18.5t-20.5 -13t-22 4.5q13 44 22 63t20.5 31t27 17.5 t34.5 5.5z" glyph-name="otilde" horiz-adv-x="629" unicode="õ"/>
<glyph d="M27 229q0 64 19.5 117t57 91t91.5 59.5t123 21.5t123 -21.5t91.5 -59.5t57 -91t19.5 -117t-19.5 -117t-57 -91t-91.5 -59.5t-123 -21.5t-123 21.5t-91.5 59.5t-57 91t-19.5 117zM197 229q0 -95 32 -148.5t89 -53.5t89 53.5t32 148.5t-32 148.5t-89 53.5t-89 -53.5 t-32 -148.5zM218 579q-25 0 -42.5 17.5t-17.5 42.5t17.5 42.5t42.5 17.5t42.5 -17.5t17.5 -42.5t-17.5 -42.5t-42.5 -17.5zM421 579q-25 0 -42.5 17.5t-17.5 42.5t17.5 42.5t42.5 17.5t43 -17.5t18 -42.5t-18 -42.5t-43 -17.5z" glyph-name="odieresis" horiz-adv-x="633" unicode="ö"/>
<glyph d="M40 416v-110h520v110h-520zM221 557q0 -30 19 -53q24 -25 59 -25q34 0 58 25q20 22 21 53q-1 30 -21 53q-24 25 -58 26q-31 -1 -53 -21q-25 -24 -25 -58zM221 167q0 -30 19 -53q24 -25 59 -25q34 0 58 25q20 22 21 53q-1 34 -26 58q-23 20 -53 21q-31 -1 -53 -21 q-25 -24 -25 -58z" glyph-name="divide" horiz-adv-x="600" unicode="÷"/>
<glyph d="M449 488l48 62l47 -34l-52 -67q30 -42 42 -76q15 -49 15 -114q0 -147 -83 -216q-67 -55 -161 -55q-77 0 -137 39l-51 -66l-46 35l53 69q-29 33 -41 66q-20 54 -20 121q0 147 72 212.5t168 65.5q40 0 74 -10t72 -32zM399 423q-44 35 -93 35q-65 0 -109 -50t-44 -149 q0 -73 26 -122zM436 376l-219 -285q38 -30 86 -30q68 0 112 49.5t44 149.5q0 37 -6 65q-4 20 -17 51z" glyph-name="oslash" horiz-adv-x="611" unicode="ø"/>
<glyph d="M236 523q13 0 11 -16v-379q0 -69 62 -70h24q61 0 89 70v240q0 53 -66 93v4q0 15 23 18q136 28 198 40q10 2 8 -12v-544q2 -16 -13 -14q-103 -5 -150 78h-4q-52 -74 -132 -74h-43q-159 19 -159 148v243q0 73 -66 113v4q0 14 19 17q139 30 199 41zM182 723q-15 -2 -16 -15 q17 -2 32 -17l42 -58q52 -75 139 -66q11 -1 5 15l-57 130q-4 11 -20 11h-125z" glyph-name="ugrave" horiz-adv-x="624" unicode="ù"/>
<glyph d="M236 523q13 0 11 -16v-379q0 -69 62 -70h24q61 0 89 70v240q0 53 -66 93v4q0 15 23 18q136 28 198 40q10 2 8 -12v-544q2 -16 -13 -14q-103 -5 -150 78h-4q-52 -74 -132 -74h-43q-159 19 -159 148v243q0 73 -66 113v4q0 14 19 17q139 30 199 41zM457 723h-125 q-16 0 -20 -11l-57 -130q-6 -16 5 -15q87 -9 138 66l42 58q16 15 33 17q-1 13 -16 15z" glyph-name="uacute" horiz-adv-x="626" unicode="ú"/>
<glyph d="M236 523q13 0 11 -16v-379q0 -69 62 -70h24q61 0 89 70v240q0 53 -66 93v4q0 15 23 18q136 28 198 40q10 2 8 -12v-544q2 -16 -13 -14q-103 -5 -150 78h-4q-52 -74 -132 -74h-43q-159 19 -159 148v243q0 73 -66 113v4q0 14 19 17q139 30 199 41zM329 722q15 0 23 -11 l145 -145q5 -8 -5 -9h-90q-23 1 -31 13q-50 54 -52 57v0l-56 -58q-11 -13 -30 -12h-77h-8q-7 0 -8 6l147 148q7 9 21 11h21z" glyph-name="ucircumflex" horiz-adv-x="623" unicode="û"/>
<glyph d="M236 523q13 0 11 -16v-379q0 -69 62 -70h24q61 0 89 70v240q0 53 -66 93v4q0 15 23 18q136 28 198 40q10 2 8 -12v-544q2 -16 -13 -14q-103 -5 -150 78h-4q-52 -74 -132 -74h-43q-159 19 -159 148v243q0 73 -66 113v4q0 14 19 17q139 30 199 41zM218 579 q-25 0 -42.5 17.5t-17.5 42.5t17.5 42.5t42.5 17.5t42.5 -17.5t17.5 -42.5t-17.5 -42.5t-42.5 -17.5zM421 579q-25 0 -42.5 17.5t-17.5 42.5t17.5 42.5t42.5 17.5t43 -17.5t18 -42.5t-18 -42.5t-43 -17.5z" glyph-name="udieresis" horiz-adv-x="624" unicode="ü"/>
<glyph d="M51 508h248q19 0 25 -16v-3q-45 -22 -44 -55v-8q0 -11 94 -229h4q95 191 105 237q-5 45 -44 47v11q1 12 15 16h196q11 -5 14 -16v-7q-51 -3 -83 -57l-232 -577q-40 -109 -130 -135t-155 -14q-16 4 -19 21q69 10 112 51t123 233q-175 437 -199 450q-25 28 -56 32v3 q3 17 26 16zM478 720h-125q-16 0 -20 -11l-57 -130q-6 -15 6 -15q86 -9 138 66l42 58q15 15 32 17q-1 13 -16 15z" glyph-name="yacute" horiz-adv-x="683" unicode="ý"/>
<glyph d="M66 -199v915h88v-252q35 37 62 50q35 16 80 16q67 0 117.5 -34t76.5 -96.5t26 -136.5q0 -80 -28.5 -143.5t-83 -97.5t-113.5 -34q-41 0 -76 16q-26 13 -61 50v-253h-88zM146 256q0 -100 40.5 -147.5t97.5 -47.5q59 0 100.5 49.5t41.5 153.5q0 99 -40.5 148t-97.5 49 q-56 0 -99 -52.5t-43 -152.5z" glyph-name="thorn" horiz-adv-x="556" unicode="þ"/>
</font>
</defs>
</svg>
